<svg xmlns="http://www.w3.org/2000/svg" viewBox="0 0 1500 1500" role="img" aria-label="Bitso icon logo">
  <title>Bitso icon logo</title>
  <g fill="#252C36">
    <path d="M 74 71 L 71 74 L 71 787 L 72 788 L 72 802 L 73 803 L 73 814 L 74 815 L 74 824 L 75 825 L 76 840 L 77 841 L 77 847 L 78 848 L 78 854 L 79 855 L 79 860 L 80 861 L 81 872 L 82 873 L 82 877 L 83 878 L 83 882 L 84 883 L 84 887 L 85 888 L 86 897 L 87 898 L 87 901 L 88 902 L 88 905 L 89 906 L 89 910 L 90 911 L 90 914 L 91 915 L 91 918 L 92 919 L 93 926 L 95 930 L 95 933 L 97 937 L 97 940 L 99 944 L 99 947 L 100 948 L 100 950 L 101 951 L 101 953 L 102 954 L 102 956 L 103 957 L 103 959 L 104 960 L 104 962 L 105 963 L 105 965 L 106 966 L 106 968 L 107 969 L 107 971 L 108 972 L 108 974 L 109 975 L 111 983 L 113 986 L 114 991 L 116 994 L 116 996 L 118 999 L 119 1004 L 122 1009 L 122 1011 L 124 1014 L 124 1016 L 127 1021 L 127 1023 L 132 1032 L 132 1034 L 152 1074 L 154 1076 L 161 1090 L 163 1092 L 164 1095 L 166 1097 L 167 1100 L 169 1102 L 173 1110 L 181 1121 L 182 1124 L 185 1127 L 186 1130 L 189 1133 L 189 1134 L 191 1136 L 193 1140 L 196 1143 L 198 1147 L 201 1150 L 203 1154 L 206 1157 L 206 1158 L 209 1161 L 209 1162 L 213 1166 L 213 1167 L 216 1170 L 216 1171 L 220 1175 L 220 1176 L 225 1181 L 225 1182 L 230 1187 L 230 1188 L 235 1193 L 235 1194 L 243 1202 L 243 1203 L 253 1213 L 253 1214 L 284 1245 L 285 1245 L 296 1256 L 297 1256 L 311 1269 L 312 1269 L 317 1274 L 318 1274 L 323 1279 L 324 1279 L 328 1283 L 329 1283 L 332 1286 L 333 1286 L 337 1290 L 338 1290 L 345 1296 L 349 1298 L 356 1304 L 357 1304 L 359 1306 L 360 1306 L 362 1308 L 363 1308 L 386 1324 L 389 1325 L 394 1329 L 397 1330 L 399 1332 L 402 1333 L 409 1338 L 414 1340 L 416 1342 L 423 1345 L 425 1347 L 465 1367 L 467 1367 L 476 1372 L 478 1372 L 483 1375 L 485 1375 L 488 1377 L 490 1377 L 495 1380 L 500 1381 L 508 1385 L 513 1386 L 516 1388 L 518 1388 L 519 1389 L 521 1389 L 522 1390 L 524 1390 L 525 1391 L 527 1391 L 528 1392 L 530 1392 L 531 1393 L 533 1393 L 534 1394 L 536 1394 L 537 1395 L 539 1395 L 540 1396 L 542 1396 L 543 1397 L 545 1397 L 546 1398 L 548 1398 L 552 1400 L 555 1400 L 556 1401 L 562 1402 L 566 1404 L 569 1404 L 573 1406 L 576 1406 L 577 1407 L 580 1407 L 581 1408 L 584 1408 L 585 1409 L 588 1409 L 589 1410 L 593 1410 L 594 1411 L 597 1411 L 598 1412 L 601 1412 L 602 1413 L 606 1413 L 607 1414 L 611 1414 L 612 1415 L 616 1415 L 617 1416 L 621 1416 L 622 1417 L 626 1417 L 627 1418 L 632 1418 L 633 1419 L 644 1420 L 645 1421 L 658 1422 L 659 1423 L 666 1423 L 667 1424 L 674 1424 L 675 1425 L 684 1425 L 685 1426 L 696 1426 L 697 1427 L 711 1427 L 712 1428 L 780 1428 L 781 1427 L 794 1427 L 795 1426 L 805 1426 L 806 1425 L 815 1425 L 816 1424 L 824 1424 L 825 1423 L 833 1423 L 834 1422 L 841 1422 L 842 1421 L 849 1421 L 850 1420 L 857 1420 L 858 1419 L 862 1419 L 866 1415 L 867 1413 L 867 1051 L 866 1050 L 866 1047 L 863 1041 L 857 1035 L 849 1031 L 845 1031 L 844 1030 L 808 1031 L 807 1032 L 779 1033 L 778 1034 L 760 1034 L 759 1035 L 740 1035 L 739 1034 L 725 1034 L 724 1033 L 715 1033 L 714 1032 L 708 1032 L 707 1031 L 702 1031 L 701 1030 L 697 1030 L 696 1029 L 687 1028 L 686 1027 L 679 1026 L 675 1024 L 672 1024 L 671 1023 L 669 1023 L 668 1022 L 666 1022 L 665 1021 L 663 1021 L 662 1020 L 660 1020 L 659 1019 L 651 1017 L 648 1015 L 646 1015 L 641 1012 L 639 1012 L 632 1008 L 630 1008 L 622 1004 L 620 1002 L 611 998 L 601 991 L 598 990 L 596 988 L 592 986 L 589 983 L 585 981 L 578 975 L 577 975 L 573 971 L 572 971 L 566 965 L 565 965 L 538 938 L 538 937 L 533 932 L 533 931 L 529 927 L 529 926 L 520 915 L 520 914 L 510 900 L 505 890 L 503 888 L 493 868 L 493 866 L 490 861 L 490 859 L 486 851 L 486 849 L 485 848 L 485 846 L 484 845 L 484 843 L 483 842 L 483 840 L 482 839 L 482 837 L 480 833 L 480 830 L 478 826 L 478 823 L 477 822 L 477 819 L 476 818 L 476 815 L 475 814 L 474 805 L 473 804 L 473 799 L 472 798 L 472 793 L 471 792 L 471 785 L 470 784 L 470 773 L 469 772 L 469 78 L 468 77 L 468 75 L 463 71 Z"/>
    <path d="M 633 80 L 629 83 L 627 87 L 627 445 L 628 446 L 628 451 L 629 452 L 629 454 L 631 458 L 639 467 L 643 469 L 646 469 L 647 470 L 652 470 L 653 469 L 666 469 L 667 468 L 687 468 L 688 467 L 706 467 L 707 466 L 742 465 L 743 464 L 754 464 L 755 465 L 770 465 L 771 466 L 779 466 L 780 467 L 786 467 L 787 468 L 792 468 L 793 469 L 803 470 L 804 471 L 807 471 L 808 472 L 811 472 L 812 473 L 819 474 L 823 476 L 826 476 L 827 477 L 829 477 L 830 478 L 838 480 L 841 482 L 846 483 L 856 488 L 858 488 L 878 498 L 880 500 L 885 502 L 887 504 L 890 505 L 892 507 L 895 508 L 897 510 L 904 514 L 907 517 L 908 517 L 911 520 L 912 520 L 915 523 L 916 523 L 919 526 L 920 526 L 925 531 L 926 531 L 951 555 L 951 556 L 964 570 L 964 571 L 973 582 L 975 586 L 978 589 L 978 590 L 982 595 L 983 598 L 985 600 L 986 603 L 988 605 L 990 610 L 992 612 L 1001 630 L 1001 632 L 1004 637 L 1004 639 L 1007 644 L 1008 649 L 1010 652 L 1010 654 L 1011 655 L 1011 657 L 1012 658 L 1012 660 L 1014 664 L 1014 667 L 1016 671 L 1016 674 L 1017 675 L 1017 678 L 1018 679 L 1018 682 L 1019 683 L 1019 686 L 1020 687 L 1020 692 L 1021 693 L 1022 703 L 1023 704 L 1023 710 L 1024 711 L 1024 720 L 1025 721 L 1025 736 L 1026 737 L 1026 1359 L 1030 1361 L 1046 1353 L 1048 1353 L 1068 1343 L 1070 1341 L 1083 1335 L 1085 1333 L 1090 1331 L 1092 1329 L 1097 1327 L 1099 1325 L 1102 1324 L 1104 1322 L 1112 1318 L 1120 1312 L 1123 1311 L 1125 1309 L 1126 1309 L 1128 1307 L 1129 1307 L 1131 1305 L 1138 1301 L 1141 1298 L 1148 1294 L 1151 1291 L 1155 1289 L 1158 1286 L 1159 1286 L 1162 1283 L 1163 1283 L 1166 1280 L 1167 1280 L 1171 1276 L 1172 1276 L 1176 1272 L 1177 1272 L 1181 1268 L 1182 1268 L 1186 1264 L 1187 1264 L 1193 1258 L 1194 1258 L 1200 1252 L 1201 1252 L 1209 1244 L 1210 1244 L 1225 1229 L 1226 1229 L 1255 1199 L 1255 1198 L 1270 1182 L 1270 1181 L 1275 1176 L 1275 1175 L 1291 1156 L 1291 1155 L 1300 1144 L 1302 1140 L 1305 1137 L 1309 1130 L 1312 1127 L 1312 1126 L 1324 1109 L 1325 1106 L 1329 1101 L 1330 1098 L 1332 1096 L 1333 1093 L 1338 1086 L 1345 1072 L 1347 1070 L 1350 1063 L 1352 1061 L 1365 1035 L 1365 1033 L 1371 1022 L 1371 1020 L 1377 1008 L 1377 1006 L 1379 1003 L 1379 1001 L 1382 996 L 1383 991 L 1387 983 L 1389 975 L 1391 972 L 1391 970 L 1392 969 L 1392 967 L 1393 966 L 1393 964 L 1394 963 L 1394 961 L 1395 960 L 1395 958 L 1396 957 L 1396 955 L 1398 951 L 1398 948 L 1399 947 L 1399 945 L 1400 944 L 1400 942 L 1402 938 L 1402 935 L 1404 931 L 1405 924 L 1407 920 L 1407 916 L 1408 915 L 1409 909 L 1410 908 L 1410 904 L 1411 903 L 1411 900 L 1412 899 L 1412 896 L 1413 895 L 1413 891 L 1414 890 L 1414 887 L 1415 886 L 1415 882 L 1416 881 L 1416 877 L 1417 876 L 1417 871 L 1418 870 L 1418 866 L 1419 865 L 1419 860 L 1420 859 L 1420 854 L 1421 853 L 1421 847 L 1422 846 L 1422 840 L 1423 839 L 1423 832 L 1424 831 L 1424 824 L 1425 823 L 1425 814 L 1426 813 L 1426 802 L 1427 801 L 1427 787 L 1428 786 L 1428 712 L 1427 711 L 1427 697 L 1426 696 L 1426 685 L 1425 684 L 1425 675 L 1424 674 L 1424 667 L 1423 666 L 1423 659 L 1422 658 L 1421 645 L 1420 644 L 1420 639 L 1419 638 L 1419 633 L 1418 632 L 1418 627 L 1417 626 L 1417 622 L 1416 621 L 1416 617 L 1415 616 L 1415 612 L 1414 611 L 1413 602 L 1412 601 L 1412 598 L 1411 597 L 1411 593 L 1410 592 L 1410 589 L 1409 588 L 1409 585 L 1408 584 L 1408 581 L 1407 580 L 1406 573 L 1405 572 L 1404 566 L 1402 562 L 1402 559 L 1400 555 L 1400 552 L 1399 551 L 1399 549 L 1398 548 L 1398 546 L 1397 545 L 1397 543 L 1396 542 L 1396 540 L 1395 539 L 1395 537 L 1394 536 L 1394 534 L 1393 533 L 1393 531 L 1392 530 L 1392 528 L 1391 527 L 1391 525 L 1390 524 L 1388 516 L 1386 513 L 1385 508 L 1383 505 L 1383 503 L 1381 500 L 1380 495 L 1377 490 L 1377 488 L 1375 485 L 1375 483 L 1367 467 L 1367 465 L 1347 425 L 1345 423 L 1338 409 L 1336 407 L 1335 404 L 1333 402 L 1332 399 L 1330 397 L 1326 389 L 1318 378 L 1317 375 L 1314 372 L 1313 369 L 1310 366 L 1310 365 L 1308 363 L 1304 356 L 1298 349 L 1298 348 L 1290 338 L 1290 337 L 1286 333 L 1286 332 L 1279 324 L 1279 323 L 1274 318 L 1274 317 L 1269 312 L 1269 311 L 1264 306 L 1264 305 L 1256 297 L 1256 296 L 1246 286 L 1246 285 L 1214 253 L 1213 253 L 1194 235 L 1193 235 L 1188 230 L 1187 230 L 1182 225 L 1181 225 L 1176 220 L 1175 220 L 1171 216 L 1170 216 L 1167 213 L 1166 213 L 1162 209 L 1161 209 L 1154 203 L 1150 201 L 1143 195 L 1142 195 L 1140 193 L 1133 189 L 1130 186 L 1129 186 L 1124 182 L 1121 181 L 1110 173 L 1107 172 L 1105 170 L 1102 169 L 1100 167 L 1097 166 L 1090 161 L 1085 159 L 1083 157 L 1076 154 L 1074 152 L 1034 132 L 1032 132 L 1023 127 L 1021 127 L 1016 124 L 1014 124 L 1011 122 L 1009 122 L 1004 119 L 999 118 L 996 116 L 994 116 L 991 114 L 986 113 L 983 111 L 981 111 L 980 110 L 978 110 L 977 109 L 975 109 L 974 108 L 972 108 L 971 107 L 969 107 L 968 106 L 966 106 L 965 105 L 963 105 L 962 104 L 960 104 L 959 103 L 957 103 L 956 102 L 954 102 L 953 101 L 951 101 L 947 99 L 944 99 L 940 97 L 937 97 L 933 95 L 930 95 L 926 93 L 923 93 L 922 92 L 919 92 L 918 91 L 915 91 L 914 90 L 911 90 L 910 89 L 907 89 L 906 88 L 902 88 L 901 87 L 898 87 L 897 86 L 893 86 L 892 85 L 888 85 L 887 84 L 883 84 L 882 83 L 878 83 L 877 82 L 873 82 L 872 81 L 867 81 L 866 80 L 861 80 L 860 79 L 855 79 L 854 78 L 848 78 L 847 77 L 841 77 L 840 76 L 825 75 L 824 74 L 815 74 L 814 73 L 803 73 L 802 72 L 788 72 L 787 71 L 718 71 L 717 72 L 703 72 L 702 73 L 691 73 L 690 74 L 671 75 L 670 76 L 662 76 L 661 77 L 653 77 L 652 78 L 645 78 L 644 79 L 637 79 L 636 80 Z"/>
  </g>
</svg>
