<svg xmlns="http://www.w3.org/2000/svg" viewBox="0 0 1024 500" role="img" aria-label="GBM logo">
  <title>GBM logo</title>
  <defs>
    <linearGradient id="bg" x1="0" y1="0" x2="1" y2="0">
      <stop offset="0%" stop-color="#1B1D23"/>
      <stop offset="100%" stop-color="#050608"/>
    </linearGradient>
  </defs>
  <rect width="1024" height="500" fill="url(#bg)"/>
  <g fill="#F3F3F3" fill-rule="evenodd">
    <path d="M 392 185 L 392 377 L 557 377 L 558 376 L 566 376 L 567 375 L 571 375 L 572 374 L 575 374 L 576 373 L 578 373 L 579 372 L 581 372 L 582 371 L 584 371 L 585 370 L 587 370 L 588 369 L 589 369 L 590 368 L 591 368 L 593 366 L 594 366 L 596 364 L 597 364 L 604 357 L 604 356 L 606 354 L 606 353 L 607 352 L 607 351 L 608 350 L 608 349 L 609 348 L 609 347 L 610 346 L 610 344 L 611 343 L 611 341 L 612 340 L 612 337 L 613 336 L 613 330 L 614 329 L 614 319 L 613 318 L 613 312 L 612 311 L 612 308 L 611 307 L 611 305 L 610 304 L 610 302 L 609 301 L 609 300 L 608 299 L 608 298 L 606 296 L 606 295 L 603 292 L 603 291 L 602 290 L 601 290 L 598 287 L 597 287 L 595 285 L 594 285 L 592 283 L 591 283 L 590 282 L 589 282 L 588 281 L 587 281 L 586 280 L 584 280 L 583 279 L 581 279 L 580 278 L 578 278 L 577 277 L 573 277 L 572 276 L 571 276 L 570 275 L 571 274 L 574 274 L 575 273 L 577 273 L 578 272 L 579 272 L 580 271 L 581 271 L 583 269 L 584 269 L 593 260 L 593 259 L 595 257 L 595 256 L 596 255 L 596 253 L 597 252 L 597 251 L 598 250 L 598 247 L 599 246 L 599 241 L 600 240 L 600 224 L 599 223 L 599 219 L 598 218 L 598 216 L 597 215 L 597 213 L 596 212 L 596 211 L 595 210 L 595 209 L 593 207 L 593 206 L 589 202 L 589 201 L 588 200 L 587 200 L 584 197 L 583 197 L 581 195 L 580 195 L 579 194 L 578 194 L 577 193 L 576 193 L 575 192 L 574 192 L 573 191 L 572 191 L 571 190 L 569 190 L 568 189 L 566 189 L 565 188 L 562 188 L 561 187 L 557 187 L 556 186 L 549 186 L 548 185 Z M 436 299 L 437 298 L 543 298 L 544 299 L 547 299 L 548 300 L 550 300 L 551 301 L 553 301 L 554 302 L 555 302 L 561 308 L 561 309 L 562 310 L 562 311 L 563 312 L 563 314 L 564 315 L 564 327 L 563 328 L 563 330 L 562 331 L 562 332 L 560 334 L 560 335 L 557 338 L 556 338 L 554 340 L 553 340 L 552 341 L 551 341 L 550 342 L 545 342 L 544 343 L 536 343 L 535 344 L 438 344 L 436 342 Z M 438 213 L 528 213 L 529 214 L 535 214 L 536 215 L 540 215 L 541 216 L 542 216 L 543 217 L 544 217 L 551 224 L 551 225 L 552 226 L 552 227 L 553 228 L 553 230 L 554 231 L 554 242 L 553 243 L 553 246 L 552 247 L 552 248 L 551 249 L 551 250 L 545 256 L 544 256 L 543 257 L 541 257 L 540 258 L 537 258 L 536 259 L 437 259 L 436 258 L 436 215 Z"/>
    <path d="M 655 183 L 655 375 L 699 375 L 699 248 L 700 247 L 701 248 L 701 249 L 702 250 L 702 252 L 703 253 L 703 254 L 704 255 L 704 256 L 705 257 L 705 258 L 706 259 L 706 260 L 707 261 L 707 262 L 708 263 L 708 264 L 709 265 L 709 267 L 710 268 L 710 269 L 711 270 L 711 271 L 712 272 L 712 273 L 713 274 L 713 275 L 714 276 L 714 277 L 715 278 L 715 280 L 716 281 L 716 282 L 717 283 L 717 284 L 718 285 L 718 286 L 719 287 L 719 288 L 720 289 L 720 290 L 721 291 L 721 293 L 722 294 L 722 295 L 723 296 L 723 297 L 724 298 L 724 299 L 725 300 L 725 301 L 726 302 L 726 304 L 727 305 L 727 306 L 728 307 L 728 308 L 729 309 L 729 310 L 730 311 L 730 312 L 731 313 L 731 314 L 732 315 L 732 317 L 733 318 L 733 319 L 734 320 L 734 321 L 735 322 L 735 323 L 736 324 L 736 325 L 737 326 L 737 328 L 738 329 L 738 330 L 739 331 L 739 332 L 740 333 L 740 335 L 741 336 L 741 337 L 742 338 L 742 339 L 743 340 L 743 341 L 744 342 L 744 343 L 745 344 L 745 346 L 746 347 L 746 348 L 747 349 L 747 350 L 748 351 L 748 352 L 749 353 L 749 354 L 750 355 L 750 356 L 751 357 L 751 359 L 752 360 L 752 361 L 753 362 L 753 363 L 754 364 L 754 365 L 755 366 L 755 367 L 756 368 L 756 370 L 757 371 L 757 372 L 758 373 L 758 374 L 759 375 L 804 375 L 805 374 L 805 373 L 806 372 L 806 371 L 807 370 L 807 369 L 808 368 L 808 367 L 809 366 L 809 365 L 810 364 L 810 362 L 811 361 L 811 360 L 812 359 L 812 358 L 813 357 L 813 356 L 814 355 L 814 354 L 815 353 L 815 352 L 816 351 L 816 350 L 817 349 L 817 348 L 818 347 L 818 345 L 819 344 L 819 343 L 821 341 L 821 339 L 822 338 L 822 337 L 823 336 L 823 335 L 824 334 L 824 333 L 825 332 L 825 331 L 826 330 L 826 329 L 827 328 L 827 327 L 828 326 L 828 325 L 829 324 L 829 323 L 830 322 L 830 320 L 831 319 L 831 318 L 832 317 L 832 316 L 833 315 L 833 314 L 834 313 L 834 312 L 835 311 L 835 310 L 836 309 L 836 308 L 837 307 L 837 306 L 838 305 L 838 303 L 839 302 L 839 301 L 840 300 L 840 299 L 841 298 L 841 297 L 842 296 L 842 295 L 843 294 L 843 293 L 844 292 L 844 291 L 845 290 L 845 289 L 846 288 L 846 286 L 847 285 L 847 284 L 848 283 L 848 282 L 849 281 L 849 280 L 850 279 L 850 278 L 851 277 L 851 276 L 852 275 L 852 273 L 853 272 L 853 271 L 854 270 L 854 269 L 855 268 L 855 266 L 856 265 L 856 264 L 857 263 L 857 262 L 858 261 L 858 260 L 859 259 L 859 258 L 860 257 L 860 256 L 861 255 L 861 254 L 862 253 L 862 252 L 863 251 L 863 250 L 864 249 L 864 248 L 865 247 L 866 248 L 866 375 L 910 375 L 910 183 L 851 183 L 851 185 L 850 186 L 850 187 L 849 188 L 849 189 L 848 190 L 848 191 L 847 192 L 847 193 L 846 194 L 846 195 L 845 196 L 845 198 L 844 199 L 844 200 L 843 201 L 843 202 L 842 203 L 842 204 L 841 205 L 841 206 L 840 207 L 840 208 L 839 209 L 839 210 L 838 211 L 838 213 L 837 214 L 837 215 L 836 216 L 836 217 L 835 218 L 835 219 L 834 220 L 834 221 L 833 222 L 833 223 L 832 224 L 832 225 L 831 226 L 831 227 L 830 228 L 830 230 L 829 231 L 829 232 L 828 233 L 828 234 L 827 235 L 827 236 L 826 237 L 826 238 L 825 239 L 825 240 L 824 241 L 824 243 L 823 244 L 823 245 L 822 246 L 822 247 L 821 248 L 821 249 L 820 250 L 820 251 L 819 252 L 819 253 L 818 254 L 818 255 L 817 256 L 817 258 L 816 259 L 816 260 L 815 261 L 815 262 L 814 263 L 814 264 L 813 265 L 813 266 L 812 267 L 812 268 L 811 269 L 811 270 L 810 271 L 810 273 L 809 274 L 809 275 L 808 276 L 808 277 L 807 278 L 807 279 L 806 280 L 806 281 L 805 282 L 805 283 L 804 284 L 804 285 L 803 286 L 803 287 L 802 288 L 802 289 L 801 290 L 801 292 L 800 293 L 800 294 L 799 295 L 799 296 L 798 297 L 798 298 L 797 299 L 797 300 L 796 301 L 796 302 L 795 303 L 795 304 L 794 305 L 794 307 L 793 308 L 793 309 L 792 310 L 792 311 L 791 312 L 791 313 L 790 314 L 790 315 L 789 316 L 789 317 L 788 318 L 788 320 L 787 321 L 787 322 L 786 323 L 786 324 L 785 325 L 785 326 L 784 327 L 784 328 L 782 330 L 781 329 L 781 328 L 780 327 L 780 325 L 779 324 L 779 323 L 778 322 L 778 321 L 777 320 L 777 319 L 776 318 L 776 317 L 775 316 L 775 314 L 774 313 L 774 312 L 773 311 L 773 310 L 772 309 L 772 308 L 771 307 L 771 306 L 770 305 L 770 303 L 769 302 L 769 301 L 768 300 L 768 299 L 767 298 L 767 297 L 766 296 L 766 295 L 765 294 L 765 292 L 764 291 L 764 290 L 763 289 L 763 288 L 762 287 L 762 286 L 761 285 L 761 284 L 760 283 L 760 282 L 759 281 L 759 280 L 758 279 L 758 277 L 757 276 L 757 275 L 756 274 L 756 273 L 755 272 L 755 271 L 754 270 L 754 269 L 753 268 L 753 266 L 752 265 L 752 264 L 751 263 L 751 262 L 750 261 L 750 260 L 749 259 L 749 258 L 748 257 L 748 256 L 747 255 L 747 253 L 746 252 L 746 251 L 745 250 L 745 249 L 744 248 L 744 247 L 743 246 L 743 245 L 742 244 L 742 242 L 741 241 L 741 240 L 740 239 L 740 238 L 739 237 L 739 235 L 738 234 L 738 233 L 737 232 L 737 231 L 736 230 L 736 229 L 735 228 L 735 226 L 734 225 L 734 224 L 733 223 L 733 222 L 732 221 L 732 219 L 731 218 L 731 217 L 730 216 L 730 215 L 729 214 L 729 213 L 728 212 L 728 211 L 727 210 L 727 209 L 726 208 L 726 207 L 725 206 L 725 204 L 724 203 L 724 202 L 723 201 L 723 200 L 722 199 L 722 198 L 721 197 L 721 196 L 720 195 L 720 193 L 719 192 L 719 191 L 718 190 L 718 189 L 717 188 L 717 187 L 716 186 L 716 185 L 715 184 L 715 183 Z"/>
    <path d="M 222 180 L 221 181 L 212 181 L 211 182 L 205 182 L 204 183 L 199 183 L 198 184 L 194 184 L 193 185 L 190 185 L 189 186 L 187 186 L 186 187 L 183 187 L 182 188 L 180 188 L 179 189 L 177 189 L 176 190 L 175 190 L 174 191 L 173 191 L 172 192 L 170 192 L 169 193 L 168 193 L 167 194 L 166 194 L 165 195 L 164 195 L 163 196 L 162 196 L 160 198 L 159 198 L 158 199 L 157 199 L 155 201 L 154 201 L 151 204 L 150 204 L 146 208 L 145 208 L 139 214 L 139 215 L 138 216 L 137 216 L 137 217 L 134 220 L 134 221 L 132 223 L 132 224 L 130 226 L 130 227 L 129 228 L 129 229 L 128 230 L 128 231 L 127 232 L 127 233 L 126 234 L 126 236 L 125 237 L 125 238 L 124 239 L 124 241 L 123 242 L 123 244 L 122 245 L 122 248 L 121 249 L 121 253 L 120 254 L 120 259 L 119 260 L 119 268 L 118 269 L 118 288 L 119 289 L 119 298 L 120 299 L 120 304 L 121 305 L 121 309 L 122 310 L 122 313 L 123 314 L 123 316 L 124 317 L 124 319 L 125 320 L 125 322 L 126 323 L 126 324 L 127 325 L 127 327 L 128 328 L 128 329 L 129 330 L 129 331 L 130 332 L 130 333 L 132 335 L 132 336 L 133 337 L 133 338 L 137 342 L 137 343 L 147 353 L 148 353 L 152 357 L 153 357 L 155 359 L 156 359 L 157 360 L 158 360 L 159 361 L 160 361 L 162 363 L 163 363 L 164 364 L 165 364 L 166 365 L 168 365 L 169 366 L 170 366 L 171 367 L 173 367 L 174 368 L 175 368 L 176 369 L 178 369 L 179 370 L 181 370 L 182 371 L 184 371 L 185 372 L 188 372 L 189 373 L 192 373 L 193 374 L 198 374 L 199 375 L 204 375 L 205 376 L 215 376 L 216 377 L 243 377 L 244 376 L 254 376 L 255 375 L 261 375 L 262 374 L 267 374 L 268 373 L 271 373 L 272 372 L 275 372 L 276 371 L 279 371 L 280 370 L 282 370 L 283 369 L 285 369 L 286 368 L 288 368 L 289 367 L 291 367 L 292 366 L 293 366 L 294 365 L 295 365 L 296 364 L 298 364 L 299 363 L 300 363 L 301 362 L 302 362 L 304 360 L 305 360 L 306 359 L 307 359 L 309 357 L 310 357 L 312 355 L 313 355 L 315 353 L 316 353 L 331 338 L 331 337 L 333 335 L 333 334 L 335 332 L 335 331 L 336 330 L 336 329 L 337 328 L 337 327 L 338 326 L 338 325 L 339 324 L 339 323 L 340 322 L 340 320 L 341 319 L 341 318 L 342 317 L 342 315 L 343 314 L 343 311 L 344 310 L 344 308 L 345 307 L 345 303 L 346 302 L 346 296 L 347 295 L 347 263 L 226 263 L 226 298 L 298 298 L 299 299 L 299 300 L 298 301 L 298 304 L 297 305 L 297 307 L 296 308 L 296 310 L 295 311 L 295 312 L 294 313 L 294 314 L 292 316 L 292 317 L 289 320 L 289 321 L 282 328 L 281 328 L 279 330 L 278 330 L 276 332 L 275 332 L 274 333 L 273 333 L 272 334 L 270 334 L 269 335 L 268 335 L 267 336 L 265 336 L 264 337 L 261 337 L 260 338 L 257 338 L 256 339 L 252 339 L 251 340 L 243 340 L 242 341 L 222 341 L 221 340 L 215 340 L 214 339 L 210 339 L 209 338 L 206 338 L 205 337 L 202 337 L 201 336 L 199 336 L 198 335 L 197 335 L 196 334 L 194 334 L 193 333 L 192 333 L 191 332 L 190 332 L 188 330 L 187 330 L 186 329 L 185 329 L 176 320 L 176 319 L 173 316 L 173 315 L 172 314 L 172 313 L 171 312 L 171 311 L 170 310 L 170 309 L 169 308 L 169 306 L 168 305 L 168 303 L 167 302 L 167 298 L 166 297 L 166 291 L 165 290 L 165 267 L 166 266 L 166 260 L 167 259 L 167 255 L 168 254 L 168 252 L 169 251 L 169 249 L 170 248 L 170 247 L 171 246 L 171 245 L 172 244 L 172 243 L 173 242 L 173 241 L 176 238 L 176 237 L 184 229 L 185 229 L 188 226 L 189 226 L 190 225 L 191 225 L 192 224 L 193 224 L 194 223 L 196 223 L 197 222 L 198 222 L 199 221 L 201 221 L 202 220 L 205 220 L 206 219 L 209 219 L 210 218 L 214 218 L 215 217 L 222 217 L 223 216 L 244 216 L 245 217 L 251 217 L 252 218 L 256 218 L 257 219 L 260 219 L 261 220 L 263 220 L 264 221 L 266 221 L 267 222 L 269 222 L 270 223 L 271 223 L 272 224 L 273 224 L 274 225 L 275 225 L 276 226 L 277 226 L 278 227 L 279 227 L 282 230 L 283 230 L 287 234 L 340 234 L 339 233 L 339 231 L 338 230 L 338 229 L 337 228 L 337 227 L 336 226 L 336 225 L 335 224 L 335 223 L 334 222 L 334 221 L 332 219 L 332 218 L 327 213 L 327 212 L 320 205 L 319 205 L 316 202 L 315 202 L 312 199 L 311 199 L 309 197 L 308 197 L 307 196 L 306 196 L 305 195 L 304 195 L 303 194 L 302 194 L 301 193 L 300 193 L 299 192 L 298 192 L 297 191 L 295 191 L 294 190 L 293 190 L 292 189 L 290 189 L 289 188 L 288 188 L 287 187 L 284 187 L 283 186 L 281 186 L 280 185 L 277 185 L 276 184 L 273 184 L 272 183 L 267 183 L 266 182 L 261 182 L 260 181 L 251 181 L 250 180 Z"/>
  </g>
</svg>
