<svg xmlns="http://www.w3.org/2000/svg" viewBox="0 0 685 693">
<path fill="#B39142" fill-rule="evenodd" d="M 459 655 L 460 654 L 461 654 L 462 655 L 461 656 L 460 656 Z M 461 654 L 463 652 L 464 652 L 465 653 L 465 654 L 464 655 L 462 655 Z M 461 644 L 461 645 L 460 646 L 459 646 L 458 647 L 456 647 L 454 649 L 452 649 L 450 651 L 446 651 L 444 653 L 443 653 L 442 654 L 440 654 L 439 655 L 437 655 L 436 656 L 433 656 L 432 655 L 434 653 L 435 653 L 436 652 L 437 652 L 438 651 L 440 651 L 441 650 L 444 650 L 446 648 L 447 648 L 448 647 L 450 647 L 451 646 L 453 646 L 454 645 L 455 645 L 456 644 L 458 644 L 459 643 L 460 643 Z M 377 640 L 378 639 L 379 639 L 381 641 L 380 642 L 378 642 L 377 641 Z M 476 638 L 474 640 L 472 640 L 470 642 L 469 642 L 468 643 L 466 643 L 465 642 L 465 641 L 466 640 L 467 640 L 468 639 L 470 639 L 472 637 L 475 637 Z M 277 637 L 279 639 L 279 640 L 276 643 L 275 643 L 273 645 L 273 646 L 271 648 L 271 649 L 269 651 L 269 652 L 268 653 L 267 653 L 266 652 L 266 650 L 267 649 L 267 646 L 264 643 L 264 642 L 265 641 L 270 641 L 271 640 L 272 640 L 273 639 L 274 639 L 275 638 L 276 638 Z M 360 636 L 362 636 L 363 637 L 363 638 L 361 640 L 360 640 L 358 638 Z M 260 640 L 258 642 L 254 642 L 253 643 L 252 643 L 251 644 L 249 644 L 247 646 L 247 647 L 245 649 L 244 649 L 243 650 L 243 651 L 241 653 L 240 653 L 239 652 L 239 651 L 241 649 L 241 647 L 242 646 L 242 642 L 240 640 L 241 639 L 249 639 L 251 637 L 253 637 L 254 636 L 256 636 Z M 322 633 L 324 635 L 324 637 L 323 638 L 319 638 L 318 637 L 318 636 L 319 635 L 320 635 Z M 216 644 L 218 642 L 218 641 L 221 638 L 220 637 L 220 636 L 221 635 L 223 635 L 224 634 L 226 634 L 227 633 L 233 633 L 236 636 L 237 636 L 238 637 L 239 637 L 241 639 L 240 640 L 229 640 L 228 641 L 227 641 L 226 642 L 224 642 L 222 644 L 221 644 L 220 645 L 219 645 L 218 646 Z M 201 631 L 203 629 L 206 629 L 208 631 L 209 631 L 211 633 L 209 635 L 208 634 L 202 634 L 201 633 Z M 477 619 L 477 620 L 475 622 L 474 622 L 473 623 L 471 623 L 469 625 L 467 625 L 466 626 L 465 626 L 463 628 L 462 628 L 461 629 L 460 629 L 457 632 L 455 632 L 453 634 L 452 634 L 450 636 L 449 636 L 448 637 L 447 637 L 446 638 L 444 638 L 442 640 L 440 640 L 439 641 L 438 641 L 437 642 L 429 642 L 428 643 L 427 643 L 426 644 L 422 644 L 421 643 L 420 643 L 419 642 L 419 641 L 420 640 L 423 640 L 424 639 L 431 639 L 432 638 L 434 638 L 435 637 L 437 637 L 438 636 L 440 636 L 441 635 L 442 635 L 444 633 L 446 633 L 448 631 L 450 631 L 452 629 L 453 629 L 454 628 L 455 628 L 456 627 L 457 627 L 458 626 L 459 626 L 460 625 L 461 625 L 462 624 L 463 624 L 464 623 L 465 623 L 466 622 L 467 622 L 468 621 L 469 621 L 470 620 L 472 620 L 473 619 L 474 619 L 475 618 L 476 618 Z M 164 612 L 165 611 L 166 611 L 167 612 L 168 612 L 169 613 L 169 614 L 168 615 L 167 615 L 166 614 L 165 614 L 164 613 Z M 512 608 L 507 613 L 507 619 L 510 622 L 511 622 L 514 625 L 514 627 L 517 630 L 518 630 L 519 631 L 522 631 L 523 630 L 524 630 L 525 629 L 526 629 L 531 624 L 531 623 L 532 622 L 532 616 L 528 612 L 520 612 L 519 611 L 518 611 L 516 609 L 515 609 L 514 608 Z M 168 639 L 168 642 L 171 644 L 174 644 L 175 645 L 191 645 L 192 644 L 201 644 L 203 646 L 196 653 L 196 657 L 201 660 L 203 660 L 204 659 L 209 659 L 214 656 L 216 656 L 222 652 L 224 652 L 225 653 L 225 655 L 221 660 L 219 664 L 219 666 L 221 668 L 224 668 L 225 669 L 234 668 L 240 664 L 245 662 L 246 660 L 251 656 L 253 659 L 252 660 L 252 662 L 249 665 L 249 670 L 250 671 L 254 671 L 255 670 L 260 669 L 267 663 L 268 663 L 280 650 L 286 649 L 290 647 L 300 639 L 303 639 L 305 637 L 310 637 L 311 638 L 310 640 L 303 642 L 300 645 L 298 645 L 295 650 L 292 653 L 288 654 L 284 659 L 284 662 L 286 664 L 290 664 L 295 662 L 296 661 L 296 659 L 298 657 L 300 657 L 304 654 L 320 647 L 322 645 L 324 645 L 325 646 L 325 648 L 322 651 L 316 654 L 313 657 L 310 658 L 306 662 L 301 664 L 294 672 L 293 675 L 291 677 L 290 685 L 291 686 L 295 686 L 301 682 L 303 682 L 309 675 L 309 674 L 314 669 L 327 662 L 333 656 L 332 652 L 338 647 L 338 644 L 339 643 L 339 631 L 338 630 L 338 624 L 334 621 L 331 621 L 326 627 L 322 625 L 307 625 L 306 626 L 301 627 L 298 629 L 295 629 L 292 631 L 289 631 L 287 630 L 276 621 L 272 621 L 268 626 L 265 626 L 262 623 L 257 612 L 254 609 L 252 608 L 244 608 L 239 611 L 237 615 L 237 618 L 236 619 L 235 619 L 231 614 L 226 612 L 224 610 L 214 610 L 211 615 L 211 617 L 209 619 L 203 616 L 192 616 L 188 619 L 187 621 L 187 626 L 185 628 L 181 629 L 177 632 L 173 632 L 170 635 Z M 457 606 L 457 605 L 458 604 L 459 604 L 460 603 L 465 603 L 466 604 L 466 605 L 465 606 L 461 606 L 460 607 L 458 607 Z M 148 597 L 150 595 L 155 595 L 158 598 L 156 600 L 155 600 L 154 601 L 151 601 L 148 598 Z M 497 616 L 493 616 L 491 610 L 483 610 L 482 611 L 477 611 L 476 612 L 475 610 L 478 607 L 478 604 L 474 600 L 474 598 L 470 595 L 459 595 L 448 601 L 433 605 L 413 622 L 402 628 L 399 628 L 395 632 L 388 631 L 386 629 L 382 629 L 376 626 L 371 626 L 368 624 L 364 624 L 361 627 L 359 627 L 358 624 L 354 620 L 352 620 L 347 623 L 345 628 L 345 649 L 347 650 L 348 652 L 342 656 L 334 664 L 331 665 L 328 668 L 321 672 L 314 679 L 312 683 L 312 686 L 316 691 L 319 691 L 321 690 L 332 678 L 336 675 L 340 674 L 342 672 L 343 674 L 341 676 L 341 681 L 343 683 L 347 684 L 361 692 L 367 691 L 373 684 L 372 681 L 369 678 L 364 677 L 362 675 L 357 674 L 353 672 L 350 669 L 348 669 L 347 668 L 351 664 L 353 664 L 355 668 L 357 668 L 362 671 L 364 671 L 368 674 L 372 675 L 381 683 L 386 684 L 387 683 L 393 682 L 396 679 L 396 677 L 394 674 L 387 668 L 387 667 L 396 661 L 397 656 L 395 654 L 389 654 L 384 659 L 384 663 L 383 664 L 380 664 L 376 661 L 372 660 L 363 655 L 357 656 L 353 652 L 355 649 L 358 647 L 360 647 L 362 649 L 372 653 L 375 656 L 380 657 L 382 655 L 385 654 L 388 650 L 388 649 L 380 642 L 381 641 L 385 641 L 394 647 L 396 647 L 408 654 L 413 655 L 415 657 L 414 661 L 420 667 L 422 667 L 425 669 L 447 669 L 454 666 L 457 666 L 461 663 L 465 663 L 472 659 L 475 659 L 484 653 L 486 653 L 488 651 L 492 650 L 494 648 L 498 647 L 502 644 L 500 641 L 494 641 L 492 642 L 491 641 L 492 639 L 491 636 L 483 636 L 479 638 L 476 638 L 475 637 L 488 628 L 490 625 L 498 618 Z M 565 586 L 566 587 L 563 590 L 562 590 L 561 589 L 564 586 Z M 567 584 L 568 585 L 568 586 L 567 587 L 566 587 L 565 586 Z M 143 580 L 143 581 L 144 582 L 144 586 L 145 587 L 145 592 L 144 593 L 134 593 L 133 594 L 131 594 L 130 595 L 127 595 L 126 596 L 124 596 L 123 595 L 123 594 L 124 593 L 126 593 L 127 592 L 131 592 L 135 588 L 136 588 L 137 587 L 137 584 L 136 583 L 136 582 L 138 580 L 139 580 L 140 579 L 142 579 Z M 526 579 L 526 578 L 527 577 L 528 577 L 529 578 L 527 580 Z M 578 576 L 579 577 L 576 580 L 575 580 L 574 579 L 577 576 Z M 532 571 L 533 570 L 534 571 L 534 572 L 533 573 L 532 572 Z M 125 570 L 128 573 L 128 575 L 127 576 L 126 576 L 125 575 L 124 575 L 122 573 Z M 435 569 L 435 567 L 436 566 L 437 566 L 438 567 L 438 568 L 436 570 Z M 450 565 L 452 565 L 454 567 L 454 568 L 455 569 L 455 571 L 453 573 L 451 573 L 448 570 L 448 569 L 447 568 Z M 592 560 L 593 561 L 593 563 L 592 564 L 591 564 L 590 563 L 590 562 Z M 122 555 L 123 555 L 124 556 L 124 560 L 123 561 L 122 561 L 121 560 L 121 556 Z M 585 555 L 585 556 L 584 557 L 584 558 L 572 570 L 572 571 L 565 578 L 564 578 L 561 581 L 560 581 L 559 582 L 558 582 L 555 585 L 554 585 L 553 586 L 551 586 L 547 590 L 545 590 L 544 589 L 547 586 L 548 586 L 552 582 L 553 582 L 557 578 L 558 578 L 562 574 L 563 574 L 571 566 L 572 566 L 581 557 L 581 556 L 582 555 L 583 555 L 584 554 Z M 568 553 L 568 554 L 564 558 L 563 558 L 560 561 L 559 561 L 556 564 L 555 564 L 547 572 L 547 573 L 536 584 L 535 584 L 534 583 L 534 582 L 535 581 L 535 580 L 538 577 L 538 576 L 540 574 L 541 574 L 550 565 L 551 565 L 552 564 L 552 563 L 554 561 L 555 561 L 558 558 L 559 558 L 563 554 L 564 554 L 566 552 L 567 552 Z M 112 551 L 113 550 L 114 550 L 115 551 L 115 552 L 114 553 Z M 344 547 L 342 549 L 342 552 L 344 554 L 344 555 L 345 556 L 345 557 L 346 558 L 346 559 L 347 560 L 347 561 L 348 562 L 348 564 L 349 565 L 349 566 L 350 567 L 350 569 L 351 570 L 351 572 L 352 573 L 352 574 L 353 575 L 353 576 L 354 577 L 354 578 L 356 580 L 356 581 L 357 582 L 357 583 L 359 585 L 360 585 L 361 586 L 362 586 L 363 587 L 364 587 L 365 588 L 368 588 L 371 585 L 371 584 L 366 579 L 366 578 L 362 574 L 362 570 L 361 569 L 361 568 L 360 567 L 360 565 L 359 564 L 359 563 L 358 562 L 358 559 L 357 558 L 357 557 L 356 556 L 356 555 L 355 554 L 355 553 L 350 548 L 348 548 L 347 547 Z M 543 544 L 544 545 L 544 546 L 540 550 L 540 551 L 537 554 L 537 555 L 531 561 L 530 560 L 530 559 L 533 556 L 533 555 L 535 553 L 535 552 L 539 548 L 539 547 L 542 544 Z M 578 543 L 579 544 L 576 547 L 576 548 L 574 550 L 573 550 L 571 552 L 570 552 L 569 551 L 577 543 Z M 103 542 L 105 544 L 103 546 L 102 546 L 101 545 L 101 544 Z M 319 540 L 323 544 L 323 545 L 324 546 L 324 547 L 325 548 L 325 549 L 326 550 L 326 551 L 327 552 L 327 553 L 328 554 L 328 556 L 329 557 L 329 558 L 331 560 L 331 564 L 332 565 L 332 567 L 333 568 L 333 569 L 334 570 L 334 571 L 335 572 L 335 574 L 336 575 L 336 577 L 337 578 L 337 579 L 340 582 L 340 583 L 339 584 L 338 584 L 337 583 L 336 583 L 332 579 L 332 578 L 331 577 L 331 576 L 330 575 L 330 572 L 328 570 L 328 567 L 327 566 L 327 565 L 326 564 L 326 561 L 325 560 L 325 559 L 324 558 L 324 556 L 323 555 L 323 554 L 322 553 L 322 550 L 321 549 L 321 548 L 320 547 L 320 545 L 319 544 L 319 543 L 318 542 L 318 541 Z M 467 539 L 467 538 L 468 537 L 469 537 L 470 536 L 472 536 L 473 537 L 473 538 L 470 541 L 469 541 Z M 177 523 L 178 523 L 181 526 L 181 527 L 182 528 L 182 529 L 181 530 L 180 530 L 179 531 L 178 530 L 177 530 L 176 529 L 176 528 L 175 527 L 175 525 Z M 586 527 L 585 526 L 584 526 L 581 529 L 580 529 L 577 532 L 576 532 L 571 537 L 570 537 L 568 539 L 567 539 L 567 540 L 566 541 L 565 541 L 560 546 L 559 546 L 557 548 L 556 548 L 555 549 L 555 550 L 553 552 L 552 552 L 548 556 L 547 556 L 536 568 L 535 567 L 535 566 L 538 563 L 538 562 L 549 551 L 550 551 L 555 546 L 555 545 L 558 540 L 558 535 L 557 534 L 555 534 L 554 533 L 560 527 L 560 521 L 559 520 L 558 520 L 537 541 L 536 541 L 523 554 L 523 555 L 521 557 L 521 559 L 520 560 L 520 561 L 519 562 L 519 564 L 518 565 L 518 568 L 517 569 L 517 577 L 516 578 L 516 580 L 515 581 L 515 584 L 518 586 L 518 588 L 517 589 L 516 589 L 513 592 L 511 592 L 509 594 L 508 594 L 507 593 L 507 586 L 509 583 L 509 575 L 508 574 L 508 573 L 505 570 L 498 570 L 497 571 L 496 571 L 491 577 L 491 585 L 494 588 L 494 589 L 495 590 L 495 596 L 497 598 L 500 598 L 502 600 L 499 603 L 499 605 L 497 608 L 499 610 L 505 610 L 516 599 L 518 599 L 521 597 L 527 597 L 528 598 L 528 599 L 527 600 L 527 601 L 528 602 L 544 602 L 545 601 L 553 601 L 554 600 L 559 600 L 560 599 L 562 599 L 563 598 L 566 597 L 568 595 L 569 595 L 573 592 L 574 592 L 578 588 L 579 588 L 582 585 L 582 584 L 593 573 L 593 572 L 597 569 L 598 566 L 601 563 L 601 561 L 602 560 L 602 555 L 600 553 L 599 553 L 595 557 L 594 556 L 594 552 L 593 551 L 590 551 L 589 552 L 588 552 L 585 555 L 584 554 L 584 552 L 586 550 L 586 547 L 589 544 L 589 541 L 590 540 L 590 533 L 589 532 L 586 532 L 585 531 L 586 530 Z M 87 516 L 88 516 L 89 517 L 89 518 L 90 519 L 90 520 L 91 521 L 91 522 L 90 523 L 89 523 L 88 522 L 88 521 L 87 520 L 87 519 L 86 518 L 86 517 Z M 269 581 L 271 585 L 275 588 L 284 588 L 289 586 L 290 588 L 288 591 L 288 594 L 292 598 L 296 599 L 330 600 L 331 601 L 378 599 L 386 595 L 388 591 L 401 591 L 405 589 L 409 585 L 412 579 L 414 581 L 419 581 L 431 578 L 439 574 L 447 582 L 457 581 L 464 575 L 464 564 L 462 561 L 457 557 L 447 557 L 439 563 L 436 557 L 440 554 L 452 551 L 458 547 L 466 551 L 479 550 L 487 546 L 491 542 L 490 538 L 493 535 L 493 533 L 484 528 L 469 528 L 462 533 L 459 542 L 457 544 L 452 542 L 456 537 L 456 535 L 453 533 L 444 534 L 442 536 L 431 537 L 415 536 L 411 541 L 412 544 L 429 545 L 431 547 L 425 553 L 423 557 L 423 561 L 430 568 L 427 570 L 416 572 L 412 577 L 406 569 L 406 563 L 408 561 L 408 548 L 405 540 L 410 531 L 409 523 L 403 518 L 392 518 L 384 526 L 383 534 L 387 535 L 393 528 L 396 528 L 399 531 L 394 540 L 397 553 L 397 561 L 395 564 L 394 572 L 395 575 L 399 579 L 397 581 L 395 581 L 390 574 L 387 574 L 384 578 L 385 587 L 374 591 L 308 590 L 290 586 L 296 577 L 296 574 L 294 571 L 291 571 L 284 578 L 280 576 L 281 570 L 284 567 L 284 561 L 281 554 L 281 547 L 283 543 L 284 532 L 279 526 L 282 524 L 289 531 L 291 531 L 295 527 L 299 527 L 303 529 L 305 528 L 321 529 L 328 525 L 328 521 L 317 519 L 307 519 L 303 517 L 297 517 L 294 519 L 286 513 L 278 513 L 274 515 L 269 521 L 269 531 L 273 537 L 273 542 L 271 544 L 269 551 L 272 560 L 272 571 L 269 577 Z M 487 509 L 485 511 L 483 511 L 482 512 L 473 512 L 472 511 L 470 511 L 469 510 L 469 509 L 471 507 L 473 507 L 474 506 L 477 506 L 478 505 L 480 505 L 481 504 L 483 504 L 484 505 L 484 506 Z M 361 504 L 359 504 L 358 505 L 357 505 L 356 506 L 354 506 L 353 507 L 353 508 L 352 509 L 352 510 L 350 512 L 350 517 L 351 518 L 352 518 L 353 519 L 354 519 L 355 518 L 356 518 L 360 514 L 360 510 L 361 509 L 361 508 L 362 507 L 362 505 Z M 75 500 L 77 502 L 75 504 L 75 506 L 74 507 L 74 508 L 73 509 L 73 510 L 71 512 L 69 512 L 67 510 L 67 509 L 68 508 L 68 506 L 69 505 L 69 502 L 70 501 L 73 501 L 74 500 Z M 580 496 L 579 497 L 578 497 L 572 503 L 572 504 L 571 505 L 571 511 L 574 514 L 575 514 L 576 515 L 578 515 L 582 519 L 582 520 L 583 521 L 584 521 L 585 522 L 586 522 L 587 521 L 589 521 L 593 517 L 593 512 L 590 509 L 590 502 L 589 501 L 589 500 L 588 499 L 588 498 L 587 497 L 586 497 L 585 496 Z M 393 495 L 394 496 L 399 496 L 400 495 L 402 495 L 403 494 L 404 494 L 406 492 L 407 492 L 409 490 L 409 489 L 408 488 L 404 488 L 403 487 L 395 487 L 393 489 Z M 227 486 L 229 486 L 232 489 L 232 491 L 230 493 L 229 493 L 225 489 L 225 488 Z M 67 483 L 68 484 L 67 485 L 67 488 L 65 490 L 65 493 L 66 494 L 66 496 L 64 498 L 61 495 L 60 495 L 59 494 L 58 494 L 57 493 L 57 491 L 58 490 L 59 490 L 61 488 L 61 487 L 65 483 Z M 384 483 L 383 483 L 381 485 L 379 485 L 378 486 L 377 486 L 372 491 L 372 495 L 373 496 L 377 496 L 378 495 L 380 495 L 383 492 L 383 490 L 384 489 L 384 487 L 385 486 L 385 484 Z M 635 480 L 636 481 L 636 483 L 634 485 L 634 487 L 632 489 L 632 490 L 630 492 L 629 491 L 629 488 L 631 486 L 631 485 L 633 483 L 633 482 Z M 608 478 L 609 479 L 609 482 L 607 484 L 606 484 L 605 483 L 606 482 L 606 480 Z M 174 484 L 172 487 L 174 491 L 170 495 L 170 499 L 182 507 L 189 514 L 189 516 L 187 518 L 181 514 L 177 514 L 173 516 L 170 519 L 167 524 L 167 531 L 168 532 L 168 534 L 173 539 L 180 539 L 186 536 L 189 533 L 189 532 L 192 530 L 195 532 L 206 534 L 212 537 L 216 537 L 217 538 L 222 539 L 229 543 L 231 543 L 235 547 L 235 551 L 232 555 L 228 553 L 218 553 L 212 556 L 211 558 L 207 561 L 206 564 L 211 566 L 211 570 L 213 572 L 215 572 L 216 573 L 224 573 L 232 569 L 235 566 L 237 566 L 238 567 L 242 567 L 245 569 L 249 569 L 251 571 L 253 571 L 258 574 L 260 574 L 264 570 L 264 565 L 260 562 L 257 562 L 256 561 L 243 560 L 242 559 L 239 560 L 237 562 L 235 562 L 234 561 L 236 558 L 240 557 L 243 554 L 243 552 L 245 550 L 245 542 L 239 536 L 228 530 L 226 530 L 222 528 L 219 528 L 218 527 L 215 527 L 214 526 L 211 526 L 210 525 L 195 524 L 192 528 L 191 527 L 191 522 L 196 519 L 198 519 L 200 517 L 200 511 L 194 505 L 195 503 L 198 505 L 200 505 L 202 507 L 204 507 L 213 512 L 215 512 L 219 514 L 225 514 L 228 511 L 231 511 L 232 509 L 234 508 L 238 515 L 240 517 L 243 518 L 245 522 L 248 525 L 253 525 L 255 527 L 262 527 L 264 525 L 264 522 L 260 520 L 256 516 L 251 513 L 245 507 L 245 506 L 240 500 L 237 500 L 236 501 L 236 503 L 233 506 L 232 506 L 230 503 L 234 499 L 235 499 L 241 492 L 241 485 L 240 484 L 240 482 L 234 477 L 226 477 L 222 479 L 219 482 L 219 484 L 217 488 L 217 494 L 219 498 L 226 503 L 224 505 L 221 505 L 213 501 L 208 500 L 206 498 L 204 498 L 202 496 L 198 495 L 196 493 L 191 491 L 184 486 L 182 486 L 180 484 L 178 484 L 177 483 Z M 602 471 L 603 472 L 603 474 L 602 475 L 602 476 L 600 478 L 599 478 L 598 477 L 599 476 L 599 475 L 600 474 L 600 472 L 601 471 Z M 467 494 L 468 493 L 468 492 L 472 488 L 472 487 L 476 483 L 477 484 L 477 485 L 475 487 L 475 492 L 477 494 L 479 494 L 480 493 L 482 493 L 483 492 L 484 492 L 485 491 L 485 489 L 486 488 L 486 482 L 487 481 L 487 479 L 484 479 L 483 480 L 482 480 L 481 481 L 480 481 L 479 482 L 478 482 L 477 481 L 477 480 L 480 477 L 481 477 L 487 471 L 489 471 L 490 470 L 497 470 L 499 472 L 500 472 L 501 473 L 506 473 L 507 474 L 507 478 L 506 479 L 506 481 L 504 483 L 499 483 L 498 484 L 496 484 L 495 485 L 494 485 L 490 489 L 490 495 L 491 496 L 494 496 L 495 495 L 497 495 L 498 494 L 498 493 L 500 491 L 500 490 L 501 489 L 501 488 L 504 485 L 505 485 L 509 489 L 511 489 L 512 490 L 516 490 L 517 491 L 518 491 L 519 492 L 519 493 L 517 495 L 517 496 L 516 497 L 516 498 L 515 499 L 515 500 L 512 503 L 511 503 L 510 504 L 507 504 L 506 505 L 505 505 L 504 506 L 503 506 L 502 507 L 501 507 L 500 508 L 499 508 L 498 507 L 498 506 L 499 505 L 500 505 L 501 504 L 501 502 L 499 500 L 495 500 L 494 499 L 491 499 L 490 498 L 489 498 L 484 503 L 479 498 L 477 498 L 476 497 L 475 497 L 474 496 L 468 496 L 467 495 Z M 141 472 L 141 473 L 140 474 L 140 476 L 142 478 L 142 479 L 140 481 L 140 483 L 142 485 L 142 486 L 143 487 L 144 487 L 146 489 L 146 490 L 148 492 L 149 492 L 150 493 L 151 493 L 152 494 L 154 494 L 155 495 L 160 495 L 161 494 L 162 494 L 163 493 L 164 493 L 165 492 L 166 492 L 167 491 L 167 490 L 168 489 L 168 479 L 162 473 L 161 473 L 160 472 L 156 472 L 154 470 L 143 470 Z M 522 467 L 528 467 L 533 472 L 533 473 L 526 480 L 518 480 L 515 477 L 515 475 L 516 474 L 516 473 Z M 398 478 L 399 479 L 402 479 L 403 478 L 404 478 L 409 473 L 410 473 L 412 471 L 413 471 L 414 470 L 413 469 L 411 469 L 410 468 L 401 468 L 400 469 L 400 470 L 399 471 L 399 472 L 398 473 Z M 395 466 L 394 465 L 387 465 L 386 466 L 384 466 L 383 467 L 383 468 L 380 471 L 380 472 L 379 473 L 379 474 L 380 475 L 380 476 L 381 477 L 386 477 L 387 476 L 388 476 L 389 475 L 389 474 L 390 473 L 390 472 L 394 468 L 394 467 Z M 628 463 L 629 464 L 629 465 L 628 466 L 628 467 L 627 468 L 627 471 L 626 472 L 626 473 L 625 474 L 625 477 L 624 478 L 624 479 L 623 480 L 623 481 L 622 482 L 622 483 L 621 484 L 621 486 L 619 488 L 619 489 L 617 491 L 617 493 L 615 495 L 614 494 L 614 490 L 616 488 L 616 486 L 617 485 L 617 484 L 618 483 L 618 481 L 620 479 L 620 476 L 621 475 L 621 473 L 624 470 L 624 467 L 625 466 L 625 465 L 627 463 Z M 50 463 L 52 463 L 53 464 L 53 467 L 52 468 L 52 473 L 51 474 L 49 474 L 47 472 L 47 471 L 48 470 L 48 467 L 47 466 Z M 542 456 L 543 457 L 543 458 L 542 459 L 542 460 L 538 464 L 535 461 L 535 460 L 536 459 L 537 459 L 538 458 L 539 458 L 541 456 Z M 381 450 L 382 451 L 374 459 L 373 459 L 372 458 L 372 457 L 374 455 L 375 455 L 380 450 Z M 276 451 L 275 452 L 274 452 L 273 453 L 272 453 L 271 454 L 271 455 L 270 456 L 270 458 L 271 459 L 272 459 L 274 461 L 275 461 L 277 463 L 278 463 L 279 462 L 281 462 L 284 459 L 284 455 L 281 452 L 279 452 L 278 451 Z M 422 449 L 423 450 L 424 450 L 426 452 L 427 452 L 429 454 L 429 455 L 427 457 L 425 457 L 420 452 L 420 451 Z M 245 447 L 247 449 L 246 450 L 246 453 L 245 454 L 245 456 L 244 457 L 244 459 L 242 461 L 240 461 L 239 460 L 237 460 L 236 459 L 236 458 L 240 454 L 240 453 L 239 452 L 239 450 L 240 449 L 241 449 L 243 447 Z M 376 445 L 376 446 L 374 448 L 373 448 L 372 449 L 371 449 L 370 450 L 368 450 L 366 452 L 365 452 L 364 453 L 362 453 L 360 455 L 359 455 L 358 454 L 358 453 L 360 451 L 360 448 L 363 445 L 364 445 L 365 444 L 369 444 L 370 443 L 372 443 L 373 444 L 375 444 Z M 574 447 L 569 442 L 566 442 L 565 441 L 563 441 L 560 444 L 559 447 L 553 454 L 547 454 L 545 452 L 545 450 L 540 445 L 538 445 L 534 448 L 533 450 L 533 452 L 532 453 L 532 457 L 530 459 L 523 459 L 522 460 L 520 460 L 518 462 L 517 462 L 512 467 L 511 469 L 509 468 L 509 466 L 506 462 L 502 462 L 500 461 L 497 458 L 497 454 L 496 453 L 493 453 L 490 456 L 489 456 L 486 460 L 486 461 L 481 466 L 479 466 L 477 464 L 476 464 L 474 462 L 474 461 L 472 461 L 469 465 L 469 467 L 468 468 L 468 479 L 467 480 L 467 482 L 464 485 L 464 486 L 461 489 L 460 489 L 458 491 L 454 493 L 444 493 L 442 495 L 442 497 L 441 498 L 441 500 L 445 502 L 453 502 L 454 501 L 458 501 L 460 499 L 461 499 L 462 500 L 462 502 L 461 503 L 461 507 L 459 509 L 458 508 L 455 508 L 452 506 L 445 506 L 442 504 L 438 504 L 437 503 L 432 503 L 427 508 L 427 510 L 430 512 L 432 512 L 435 514 L 437 514 L 438 515 L 440 515 L 442 516 L 444 518 L 446 522 L 446 524 L 447 526 L 450 528 L 455 527 L 456 526 L 456 523 L 458 521 L 460 521 L 461 522 L 492 522 L 499 526 L 506 527 L 511 524 L 511 521 L 508 518 L 509 516 L 511 516 L 513 514 L 523 509 L 530 509 L 533 506 L 535 505 L 536 502 L 534 500 L 529 500 L 527 498 L 527 493 L 528 492 L 528 490 L 531 487 L 532 487 L 541 478 L 541 471 L 543 469 L 547 467 L 549 467 L 550 468 L 546 471 L 546 472 L 544 474 L 544 477 L 546 479 L 556 479 L 559 476 L 559 470 L 557 468 L 550 468 L 549 467 L 551 465 L 553 465 L 555 463 L 555 462 L 560 457 L 562 456 L 567 456 L 571 454 L 573 452 Z M 467 433 L 468 432 L 472 432 L 473 433 L 474 433 L 477 436 L 475 438 L 474 437 L 471 437 L 470 436 L 468 436 L 467 435 Z M 646 429 L 644 429 L 642 431 L 641 434 L 638 437 L 636 435 L 634 435 L 631 438 L 631 439 L 627 443 L 627 444 L 626 445 L 625 445 L 624 444 L 624 442 L 625 441 L 625 436 L 624 435 L 621 435 L 618 438 L 617 438 L 616 437 L 616 435 L 615 434 L 614 434 L 611 437 L 611 438 L 605 443 L 604 446 L 599 452 L 599 454 L 596 457 L 596 458 L 594 461 L 594 463 L 592 465 L 592 469 L 591 470 L 591 471 L 590 472 L 590 474 L 589 475 L 589 490 L 590 491 L 590 493 L 591 494 L 591 497 L 593 499 L 593 500 L 595 502 L 595 503 L 596 504 L 597 504 L 598 503 L 601 502 L 602 503 L 602 505 L 601 506 L 601 508 L 600 509 L 600 512 L 599 513 L 599 514 L 597 516 L 597 518 L 592 523 L 592 524 L 591 525 L 591 531 L 594 531 L 601 526 L 602 527 L 602 528 L 600 530 L 600 534 L 602 536 L 608 536 L 611 539 L 614 539 L 615 540 L 617 540 L 618 539 L 620 539 L 622 537 L 624 537 L 626 535 L 626 523 L 624 521 L 621 521 L 620 520 L 619 520 L 618 521 L 613 523 L 611 525 L 608 525 L 607 524 L 605 524 L 604 523 L 604 522 L 607 519 L 609 514 L 613 509 L 613 507 L 622 498 L 623 498 L 624 499 L 624 500 L 621 503 L 620 503 L 619 504 L 619 505 L 615 510 L 615 511 L 616 512 L 619 512 L 620 511 L 622 511 L 623 510 L 625 510 L 626 509 L 628 509 L 629 508 L 631 508 L 632 507 L 634 507 L 635 506 L 638 505 L 644 500 L 645 500 L 646 499 L 646 498 L 648 496 L 648 495 L 650 492 L 650 489 L 653 486 L 653 485 L 654 484 L 654 482 L 656 479 L 656 476 L 659 471 L 659 468 L 661 465 L 661 462 L 665 455 L 665 452 L 666 451 L 666 449 L 663 449 L 662 450 L 661 449 L 658 448 L 657 449 L 652 451 L 650 453 L 650 454 L 648 456 L 647 456 L 646 457 L 645 460 L 644 461 L 643 461 L 642 460 L 642 459 L 645 454 L 645 449 L 646 448 L 646 442 L 647 441 L 647 438 L 648 437 L 648 432 Z M 488 430 L 489 429 L 490 429 L 491 428 L 492 428 L 494 426 L 495 426 L 500 431 L 498 433 L 490 433 L 488 431 Z M 27 426 L 28 425 L 30 427 L 30 428 L 29 429 L 28 429 L 27 428 Z M 389 422 L 390 422 L 392 424 L 392 426 L 391 427 L 390 427 L 387 424 Z M 371 421 L 372 422 L 372 423 L 370 425 L 369 424 L 369 423 Z M 517 426 L 517 425 L 523 419 L 525 419 L 526 420 L 527 420 L 529 422 L 530 422 L 532 424 L 532 425 L 530 427 L 527 427 L 526 428 L 519 428 Z M 211 417 L 213 417 L 215 419 L 216 419 L 218 421 L 218 430 L 217 431 L 217 432 L 216 433 L 215 433 L 214 434 L 211 434 L 208 431 L 208 421 L 210 419 L 210 418 Z M 517 416 L 518 415 L 519 415 L 521 417 L 520 418 L 519 418 Z M 675 416 L 674 415 L 674 414 L 671 411 L 670 411 L 669 410 L 667 410 L 666 411 L 665 411 L 664 412 L 663 412 L 658 417 L 653 417 L 651 419 L 651 420 L 650 421 L 650 422 L 649 423 L 649 427 L 650 428 L 651 428 L 652 429 L 654 429 L 655 428 L 659 428 L 660 429 L 662 429 L 663 430 L 666 430 L 667 429 L 669 429 L 670 428 L 671 428 L 674 425 L 674 424 L 675 423 Z M 508 409 L 509 408 L 511 408 L 512 409 L 513 409 L 515 411 L 515 412 L 517 414 L 516 415 L 515 415 L 511 411 L 510 411 Z M 212 408 L 213 407 L 214 407 L 215 408 L 215 409 L 214 410 Z M 226 404 L 227 405 L 227 407 L 226 408 L 226 411 L 224 413 L 223 412 L 222 412 L 220 410 L 220 409 L 222 407 L 223 407 Z M 650 404 L 651 403 L 652 403 L 653 404 L 653 405 L 652 406 L 651 406 L 650 405 Z M 381 399 L 382 400 L 382 403 L 377 408 L 375 408 L 374 407 L 374 406 L 372 404 L 372 403 L 373 402 L 374 402 L 375 401 L 377 401 L 378 400 L 379 400 L 380 399 Z M 410 396 L 412 396 L 417 401 L 417 405 L 416 406 L 416 407 L 415 408 L 414 408 L 413 407 L 413 405 L 411 403 L 411 401 L 410 400 L 410 399 L 409 398 L 409 397 Z M 21 398 L 22 397 L 23 397 L 24 396 L 27 396 L 28 397 L 32 397 L 33 398 L 33 400 L 29 404 L 27 404 L 25 402 L 23 402 L 21 400 Z M 239 405 L 237 403 L 236 403 L 234 401 L 231 401 L 230 402 L 228 400 L 228 398 L 227 397 L 225 397 L 224 396 L 223 396 L 222 395 L 220 395 L 219 396 L 218 396 L 217 397 L 215 397 L 213 395 L 211 395 L 210 396 L 206 396 L 205 397 L 205 398 L 203 400 L 203 403 L 204 404 L 204 406 L 205 407 L 205 408 L 207 410 L 207 412 L 205 414 L 205 415 L 203 417 L 203 418 L 202 419 L 202 421 L 201 422 L 201 433 L 202 434 L 202 435 L 201 436 L 200 436 L 199 435 L 197 435 L 196 434 L 191 434 L 190 435 L 187 435 L 185 437 L 185 439 L 189 443 L 190 443 L 191 444 L 192 444 L 193 445 L 194 445 L 195 444 L 197 444 L 198 443 L 199 443 L 200 442 L 200 441 L 202 439 L 203 439 L 205 441 L 205 442 L 206 443 L 207 443 L 208 444 L 214 444 L 215 443 L 218 443 L 219 442 L 220 442 L 224 438 L 224 437 L 225 436 L 225 435 L 226 434 L 226 433 L 227 432 L 227 431 L 228 430 L 228 419 L 227 418 L 227 417 L 226 416 L 228 414 L 231 414 L 232 413 L 233 413 L 234 412 L 235 412 L 236 411 L 237 411 L 239 409 Z M 135 391 L 133 393 L 133 394 L 134 395 L 134 396 L 133 397 L 133 404 L 134 405 L 134 406 L 133 407 L 131 407 L 129 409 L 129 412 L 130 413 L 130 415 L 133 418 L 134 418 L 135 419 L 138 419 L 140 417 L 141 417 L 142 416 L 142 414 L 143 413 L 143 411 L 142 410 L 141 410 L 140 409 L 139 409 L 137 407 L 137 406 L 138 405 L 139 405 L 141 403 L 142 403 L 143 402 L 143 401 L 144 400 L 144 398 L 142 396 L 142 394 L 139 391 Z M 660 389 L 661 390 L 661 392 L 659 394 L 658 393 L 658 391 Z M 345 390 L 346 389 L 347 389 L 349 391 L 349 393 L 348 394 L 347 394 L 345 392 Z M 290 389 L 291 390 L 291 394 L 290 395 L 288 395 L 287 396 L 285 396 L 284 395 L 284 394 L 289 389 Z M 318 388 L 319 388 L 320 389 L 320 392 L 319 393 L 318 393 L 317 392 L 317 389 Z M 302 383 L 303 382 L 305 382 L 306 383 L 306 384 L 305 385 L 303 385 L 302 384 Z M 41 384 L 41 383 L 42 382 L 43 382 L 44 383 L 42 385 Z M 286 381 L 287 382 L 283 386 L 282 385 L 282 384 L 285 381 Z M 368 380 L 369 380 L 371 382 L 371 387 L 370 388 L 369 388 L 367 386 L 367 385 L 366 384 L 366 382 Z M 320 378 L 321 377 L 322 377 L 323 378 L 323 379 L 325 381 L 323 383 L 321 383 L 320 382 Z M 292 377 L 293 376 L 294 376 L 295 377 L 294 378 L 293 378 Z M 206 376 L 206 377 L 203 380 L 197 380 L 196 379 L 198 377 L 199 377 L 200 376 L 203 376 L 204 375 L 205 375 Z M 33 375 L 34 376 L 34 377 L 25 386 L 23 384 L 23 383 L 22 382 L 22 381 L 28 375 Z M 304 373 L 306 375 L 304 377 L 302 375 Z M 315 369 L 319 373 L 319 374 L 318 375 L 315 375 L 313 373 L 313 371 Z M 218 370 L 216 372 L 215 372 L 211 376 L 207 376 L 206 375 L 208 373 L 209 373 L 211 371 L 213 371 L 215 369 L 217 369 Z M 392 368 L 393 368 L 395 370 L 395 372 L 394 373 L 394 376 L 393 377 L 392 377 L 388 373 L 388 371 L 390 369 L 391 369 Z M 274 368 L 275 367 L 276 368 L 276 369 L 275 370 L 274 369 Z M 216 362 L 217 363 L 217 364 L 216 365 L 215 365 L 214 364 Z M 294 360 L 295 359 L 297 361 L 297 362 L 296 363 L 295 363 L 294 362 Z M 327 359 L 328 358 L 330 358 L 331 359 L 332 359 L 333 360 L 331 362 L 329 362 L 327 360 Z M 220 357 L 221 358 L 221 359 L 219 361 L 217 359 L 219 357 Z M 108 356 L 109 357 L 110 357 L 111 358 L 112 358 L 115 361 L 115 364 L 116 365 L 116 366 L 117 367 L 117 370 L 115 372 L 114 372 L 113 371 L 112 371 L 107 366 L 107 365 L 106 364 L 106 358 Z M 34 356 L 36 358 L 36 359 L 34 361 L 34 362 L 33 363 L 33 364 L 31 366 L 29 364 L 29 360 L 33 356 Z M 341 354 L 342 355 L 342 356 L 339 359 L 339 360 L 338 361 L 337 361 L 335 359 L 335 358 L 338 355 L 339 355 L 340 354 Z M 299 352 L 301 354 L 299 356 L 297 354 Z M 317 350 L 318 351 L 318 355 L 316 357 L 313 357 L 311 359 L 311 360 L 310 361 L 310 362 L 308 364 L 307 364 L 305 362 L 305 360 L 304 359 L 304 358 L 306 356 L 310 356 L 312 354 L 313 354 L 315 352 L 315 351 L 316 350 Z M 252 347 L 256 351 L 256 353 L 257 354 L 257 358 L 255 360 L 254 360 L 253 361 L 252 361 L 250 363 L 249 363 L 248 364 L 247 364 L 246 365 L 245 365 L 244 366 L 244 367 L 239 372 L 238 372 L 236 370 L 235 370 L 234 369 L 234 368 L 235 367 L 236 367 L 238 365 L 238 364 L 239 363 L 239 358 L 241 356 L 242 356 L 243 355 L 244 355 Z M 290 346 L 291 347 L 292 347 L 294 349 L 291 352 L 288 349 L 288 348 Z M 277 347 L 278 346 L 279 346 L 282 349 L 279 352 L 277 350 Z M 548 344 L 549 344 L 550 345 L 550 350 L 549 351 L 548 351 L 547 350 L 547 345 Z M 411 343 L 412 343 L 414 345 L 414 355 L 413 356 L 413 358 L 412 359 L 411 359 L 410 358 L 410 354 L 409 353 L 409 351 L 408 350 L 408 346 Z M 255 340 L 256 341 L 256 342 L 255 343 L 254 343 L 253 342 Z M 546 340 L 547 339 L 548 339 L 549 340 L 549 341 L 548 342 L 547 342 L 546 341 Z M 327 339 L 328 339 L 330 341 L 330 342 L 332 344 L 332 346 L 330 348 L 325 343 L 325 341 Z M 217 339 L 218 340 L 218 341 L 217 342 L 217 343 L 214 346 L 213 346 L 212 345 L 212 344 L 214 342 L 214 341 L 215 340 L 216 340 Z M 661 338 L 660 338 L 659 339 L 658 339 L 656 337 L 652 337 L 651 338 L 651 339 L 649 341 L 649 342 L 646 345 L 646 347 L 644 350 L 644 355 L 643 356 L 643 358 L 642 359 L 641 359 L 640 358 L 640 356 L 639 355 L 639 354 L 637 352 L 635 352 L 633 350 L 633 349 L 632 348 L 632 346 L 631 345 L 631 344 L 629 342 L 628 342 L 627 343 L 626 343 L 626 344 L 624 347 L 624 351 L 623 352 L 623 358 L 622 359 L 622 362 L 621 363 L 621 373 L 622 374 L 622 378 L 623 379 L 623 383 L 624 384 L 624 386 L 625 387 L 625 389 L 626 390 L 626 391 L 628 393 L 628 394 L 634 400 L 639 400 L 640 401 L 640 405 L 639 406 L 639 409 L 637 411 L 636 411 L 633 408 L 633 404 L 629 400 L 628 400 L 627 399 L 623 399 L 622 400 L 620 400 L 618 402 L 618 403 L 616 405 L 616 406 L 615 407 L 615 409 L 614 410 L 614 413 L 617 416 L 618 416 L 621 418 L 625 418 L 629 422 L 633 422 L 634 421 L 635 421 L 637 423 L 637 427 L 638 428 L 641 428 L 642 427 L 643 427 L 646 424 L 646 414 L 647 413 L 647 411 L 648 410 L 648 408 L 649 407 L 650 407 L 651 408 L 651 409 L 650 410 L 650 412 L 654 412 L 655 411 L 656 411 L 660 407 L 661 407 L 666 402 L 666 401 L 668 399 L 669 399 L 674 394 L 674 393 L 676 391 L 677 391 L 680 388 L 680 387 L 681 386 L 681 384 L 682 383 L 682 370 L 683 369 L 683 367 L 684 366 L 684 354 L 683 353 L 683 352 L 681 350 L 681 349 L 678 346 L 677 346 L 674 348 L 670 348 L 669 349 L 667 349 L 666 348 L 666 344 L 665 343 L 665 342 L 664 341 L 664 340 Z M 281 336 L 282 337 L 282 338 L 278 342 L 277 342 L 276 341 L 277 340 L 277 339 L 280 336 Z M 31 341 L 24 348 L 22 360 L 20 361 L 18 359 L 12 359 L 7 365 L 6 375 L 10 384 L 3 384 L 0 389 L 0 395 L 6 403 L 13 405 L 16 408 L 17 416 L 19 418 L 19 421 L 15 425 L 12 419 L 5 420 L 1 425 L 1 430 L 3 432 L 9 431 L 11 433 L 9 437 L 11 441 L 21 440 L 26 443 L 34 443 L 39 448 L 35 452 L 29 452 L 26 456 L 26 460 L 19 465 L 19 474 L 28 480 L 26 485 L 26 492 L 32 498 L 43 501 L 45 503 L 43 510 L 48 515 L 57 519 L 66 520 L 73 525 L 68 531 L 62 528 L 57 530 L 54 535 L 54 540 L 57 543 L 64 541 L 66 549 L 70 549 L 76 545 L 87 546 L 91 543 L 96 545 L 91 550 L 91 554 L 99 561 L 92 562 L 90 564 L 91 573 L 100 579 L 116 584 L 115 586 L 104 587 L 100 592 L 102 597 L 109 603 L 133 603 L 136 606 L 137 611 L 153 609 L 155 612 L 151 616 L 143 618 L 141 622 L 141 628 L 143 630 L 147 630 L 153 627 L 156 631 L 161 631 L 168 624 L 179 619 L 183 619 L 193 610 L 194 607 L 191 600 L 194 595 L 194 588 L 186 588 L 185 587 L 189 583 L 188 579 L 186 577 L 180 577 L 175 583 L 176 591 L 172 594 L 168 588 L 166 577 L 162 576 L 158 580 L 156 578 L 156 561 L 151 548 L 147 546 L 142 547 L 139 551 L 138 557 L 135 557 L 134 535 L 130 529 L 126 528 L 121 536 L 119 536 L 112 528 L 106 532 L 104 537 L 99 534 L 102 521 L 110 514 L 110 510 L 104 506 L 109 501 L 109 497 L 105 494 L 99 495 L 96 498 L 95 503 L 88 510 L 86 509 L 86 504 L 92 489 L 92 484 L 89 480 L 82 485 L 80 483 L 83 471 L 83 456 L 78 452 L 71 452 L 67 457 L 66 462 L 63 464 L 62 462 L 64 457 L 64 450 L 62 447 L 56 447 L 50 455 L 43 447 L 46 442 L 53 436 L 54 432 L 65 425 L 66 421 L 62 418 L 62 416 L 67 412 L 67 408 L 65 405 L 56 406 L 54 411 L 50 413 L 45 419 L 46 431 L 43 434 L 40 427 L 40 415 L 44 410 L 42 403 L 48 399 L 55 389 L 56 384 L 53 381 L 48 381 L 47 379 L 58 369 L 58 359 L 47 359 L 53 349 L 53 340 L 51 337 L 48 337 L 40 343 Z M 338 333 L 339 333 L 341 335 L 341 336 L 342 337 L 342 339 L 344 341 L 344 342 L 345 343 L 345 347 L 343 349 L 342 349 L 341 348 L 341 342 L 340 341 L 340 340 L 338 338 L 338 336 L 337 335 L 337 334 Z M 354 331 L 358 331 L 359 332 L 359 337 L 357 339 L 355 339 L 352 336 L 352 333 Z M 387 328 L 387 331 L 386 332 L 386 333 L 385 334 L 385 337 L 384 338 L 383 338 L 381 336 L 377 336 L 371 342 L 371 343 L 370 344 L 370 345 L 369 346 L 369 348 L 368 349 L 367 349 L 366 348 L 365 348 L 364 349 L 362 349 L 361 350 L 361 351 L 359 353 L 359 354 L 358 355 L 357 355 L 353 351 L 356 348 L 358 348 L 359 347 L 360 347 L 362 345 L 363 345 L 366 342 L 366 341 L 367 340 L 367 339 L 368 338 L 368 332 L 369 331 L 372 331 L 373 332 L 378 332 L 379 331 L 380 331 L 382 329 L 383 329 L 385 327 L 386 327 Z M 270 326 L 271 325 L 272 325 L 274 327 L 274 328 L 273 329 L 272 329 L 270 327 Z M 543 325 L 544 324 L 545 324 L 546 325 L 545 326 L 544 326 Z M 492 317 L 493 316 L 494 316 L 496 318 L 494 320 L 492 318 Z M 87 319 L 84 326 L 95 336 L 95 339 L 88 345 L 86 352 L 93 355 L 104 348 L 98 360 L 99 368 L 106 377 L 117 382 L 106 398 L 99 399 L 99 406 L 101 409 L 105 409 L 114 421 L 111 427 L 129 432 L 133 436 L 132 442 L 134 444 L 140 443 L 143 440 L 159 442 L 164 438 L 166 440 L 166 447 L 162 461 L 176 461 L 184 464 L 194 471 L 193 474 L 195 476 L 199 476 L 204 472 L 234 471 L 240 467 L 243 482 L 253 488 L 252 495 L 256 496 L 265 491 L 275 492 L 283 497 L 283 503 L 289 503 L 297 498 L 307 499 L 311 506 L 314 507 L 321 503 L 324 497 L 334 490 L 336 485 L 335 481 L 313 488 L 292 487 L 284 484 L 294 477 L 295 472 L 305 473 L 308 471 L 308 464 L 295 464 L 291 469 L 276 473 L 275 478 L 277 481 L 275 482 L 259 476 L 253 470 L 253 463 L 259 444 L 263 440 L 270 438 L 281 439 L 294 446 L 288 451 L 295 460 L 301 459 L 305 451 L 315 457 L 318 456 L 323 465 L 315 471 L 314 475 L 328 479 L 333 474 L 333 469 L 330 466 L 331 460 L 342 453 L 340 440 L 331 440 L 319 450 L 310 442 L 308 433 L 304 429 L 301 429 L 296 436 L 284 432 L 275 422 L 268 421 L 267 425 L 269 427 L 265 430 L 258 431 L 253 428 L 246 430 L 249 437 L 248 445 L 238 433 L 232 431 L 229 436 L 239 448 L 226 448 L 225 454 L 235 460 L 224 463 L 210 463 L 209 461 L 214 456 L 214 453 L 210 450 L 201 450 L 199 452 L 200 458 L 197 459 L 188 456 L 176 447 L 177 438 L 183 426 L 187 422 L 194 422 L 200 417 L 186 408 L 180 409 L 180 416 L 166 438 L 156 432 L 161 427 L 161 423 L 152 418 L 147 420 L 148 430 L 135 424 L 122 411 L 117 399 L 120 393 L 128 386 L 135 383 L 140 383 L 145 386 L 151 393 L 148 399 L 148 410 L 152 412 L 160 408 L 167 422 L 173 419 L 172 407 L 176 400 L 176 394 L 174 391 L 171 391 L 167 396 L 146 374 L 145 367 L 140 364 L 135 367 L 136 372 L 134 374 L 127 376 L 126 360 L 122 353 L 113 347 L 117 343 L 117 334 L 109 333 L 105 336 L 101 335 L 98 317 L 92 316 Z M 373 311 L 377 311 L 379 313 L 379 315 L 380 316 L 380 319 L 378 321 L 377 321 L 376 320 L 375 320 L 373 318 L 373 317 L 372 316 L 372 315 L 371 314 L 371 313 Z M 277 311 L 278 310 L 281 310 L 283 312 L 283 314 L 281 316 L 280 316 L 277 313 Z M 182 308 L 183 307 L 184 308 L 185 308 L 186 309 L 187 309 L 188 310 L 189 310 L 190 311 L 193 311 L 194 312 L 195 312 L 196 313 L 222 313 L 223 314 L 228 314 L 229 315 L 230 315 L 231 316 L 232 316 L 233 317 L 234 317 L 235 318 L 236 318 L 237 319 L 238 319 L 240 321 L 240 322 L 242 324 L 242 325 L 243 326 L 243 327 L 245 329 L 245 338 L 244 339 L 244 340 L 243 341 L 243 342 L 240 345 L 240 346 L 238 348 L 237 348 L 236 349 L 236 350 L 235 351 L 235 352 L 233 354 L 227 354 L 226 353 L 228 351 L 228 348 L 227 347 L 227 346 L 229 344 L 230 344 L 231 343 L 232 343 L 236 339 L 236 338 L 237 337 L 237 336 L 238 335 L 238 329 L 237 328 L 237 327 L 234 324 L 233 324 L 231 322 L 194 322 L 193 321 L 190 321 L 189 320 L 188 320 L 186 318 L 184 318 L 180 314 L 181 313 L 181 312 L 182 311 Z M 525 305 L 527 307 L 527 309 L 526 310 L 524 308 L 524 306 Z M 272 306 L 273 305 L 274 305 L 275 306 L 275 307 L 274 308 L 273 308 L 272 307 Z M 308 303 L 311 303 L 313 305 L 313 308 L 311 310 L 310 310 L 308 308 L 308 307 L 306 305 Z M 300 298 L 304 302 L 304 303 L 303 304 L 303 305 L 301 307 L 301 309 L 299 311 L 296 311 L 293 314 L 293 315 L 292 316 L 290 316 L 289 315 L 289 314 L 288 313 L 288 311 L 289 310 L 290 310 L 291 309 L 292 309 L 293 308 L 294 308 L 298 304 L 298 302 L 299 301 L 299 299 Z M 283 292 L 286 292 L 287 293 L 287 294 L 288 295 L 288 297 L 286 299 L 283 299 L 280 296 L 280 295 Z M 680 298 L 679 297 L 679 296 L 678 295 L 678 294 L 675 291 L 674 291 L 673 290 L 672 290 L 671 289 L 670 289 L 669 288 L 665 288 L 664 289 L 661 289 L 660 290 L 659 290 L 658 291 L 657 291 L 655 293 L 655 294 L 653 296 L 653 297 L 651 299 L 651 301 L 646 306 L 646 307 L 644 309 L 643 309 L 642 310 L 636 310 L 633 307 L 633 303 L 634 302 L 634 301 L 638 297 L 639 297 L 640 296 L 641 296 L 643 294 L 643 293 L 644 292 L 644 291 L 643 290 L 639 290 L 638 291 L 635 291 L 634 292 L 632 292 L 631 293 L 628 293 L 627 294 L 627 295 L 626 296 L 626 299 L 627 300 L 627 303 L 626 304 L 626 311 L 627 312 L 627 314 L 632 319 L 633 319 L 634 320 L 643 320 L 644 319 L 647 319 L 648 318 L 649 318 L 656 311 L 656 310 L 658 308 L 658 307 L 660 305 L 660 304 L 661 303 L 661 302 L 664 299 L 665 299 L 666 298 L 667 298 L 668 299 L 669 299 L 671 301 L 671 302 L 672 303 L 672 305 L 668 309 L 667 309 L 666 310 L 665 310 L 662 313 L 662 315 L 663 316 L 667 316 L 668 315 L 674 315 L 675 314 L 677 314 L 680 311 L 680 309 L 679 308 L 679 307 L 678 306 L 679 305 L 679 302 L 680 301 Z M 315 285 L 317 287 L 317 290 L 315 292 L 314 292 L 313 291 L 312 291 L 310 289 L 310 288 L 311 287 L 312 287 L 313 286 L 314 286 Z M 493 285 L 494 284 L 495 284 L 496 285 L 496 286 L 495 287 L 494 287 L 493 286 Z M 330 284 L 331 285 L 331 286 L 332 287 L 332 288 L 335 291 L 335 293 L 333 295 L 333 298 L 332 299 L 332 301 L 330 303 L 329 302 L 326 302 L 325 303 L 325 305 L 322 308 L 321 308 L 319 306 L 316 306 L 315 305 L 315 304 L 316 303 L 319 303 L 320 302 L 321 302 L 326 297 L 326 296 L 328 294 L 328 285 L 329 284 Z M 251 278 L 252 277 L 253 277 L 254 278 L 254 279 L 253 280 L 252 280 L 251 279 Z M 344 270 L 345 271 L 345 276 L 343 278 L 341 278 L 338 275 L 338 273 L 339 272 L 340 272 L 341 271 L 342 271 L 343 270 Z M 459 270 L 456 273 L 456 278 L 459 281 L 459 282 L 464 287 L 465 287 L 467 289 L 468 289 L 469 290 L 473 290 L 474 289 L 474 285 L 468 279 L 468 278 L 467 277 L 467 276 L 466 275 L 466 274 L 465 273 L 465 272 L 463 270 Z M 295 267 L 296 267 L 297 268 L 297 276 L 296 277 L 295 277 L 294 276 L 294 268 Z M 137 267 L 138 267 L 139 268 L 139 269 L 141 271 L 141 273 L 142 274 L 142 284 L 141 285 L 141 288 L 140 289 L 140 291 L 139 292 L 139 294 L 138 295 L 138 297 L 137 298 L 137 299 L 136 300 L 136 302 L 135 303 L 135 314 L 136 315 L 136 316 L 140 320 L 141 320 L 142 321 L 145 321 L 147 323 L 147 325 L 148 326 L 149 326 L 151 328 L 152 328 L 153 329 L 154 329 L 160 335 L 161 335 L 164 338 L 164 345 L 165 346 L 165 351 L 166 352 L 166 356 L 167 357 L 167 359 L 169 361 L 169 362 L 171 364 L 172 364 L 173 365 L 174 365 L 175 366 L 177 366 L 178 367 L 179 367 L 180 366 L 181 366 L 182 365 L 183 365 L 184 364 L 187 364 L 188 365 L 188 374 L 186 376 L 183 376 L 182 377 L 177 377 L 176 376 L 172 376 L 164 368 L 164 367 L 163 366 L 163 365 L 162 364 L 162 362 L 161 361 L 161 360 L 160 359 L 160 345 L 158 343 L 158 341 L 157 340 L 157 339 L 156 338 L 156 337 L 153 334 L 152 334 L 149 331 L 148 331 L 145 328 L 144 328 L 143 327 L 142 327 L 141 326 L 140 326 L 138 324 L 138 323 L 133 318 L 133 317 L 132 316 L 132 315 L 131 314 L 131 313 L 130 312 L 130 311 L 129 310 L 129 302 L 130 301 L 130 299 L 131 298 L 131 296 L 132 295 L 132 294 L 133 293 L 133 291 L 134 290 L 134 289 L 136 287 L 136 283 L 137 282 L 137 270 L 136 269 L 136 268 Z M 428 264 L 430 266 L 430 269 L 427 272 L 424 272 L 422 270 L 422 268 L 423 267 L 424 267 L 427 264 Z M 295 261 L 296 260 L 297 260 L 298 261 L 298 262 L 297 263 L 296 263 L 295 262 Z M 626 270 L 626 265 L 629 262 L 629 261 L 631 259 L 632 259 L 634 257 L 637 257 L 638 256 L 642 256 L 643 255 L 658 255 L 659 256 L 660 256 L 665 261 L 665 262 L 666 263 L 666 264 L 665 265 L 665 266 L 659 272 L 656 272 L 654 274 L 652 274 L 651 275 L 647 275 L 646 276 L 634 276 L 633 275 L 632 275 L 630 273 L 629 273 Z M 276 255 L 277 256 L 277 257 L 276 258 L 276 262 L 275 263 L 275 278 L 274 279 L 273 279 L 272 278 L 272 261 L 273 260 L 273 258 L 274 257 L 274 256 L 275 255 Z M 542 253 L 543 253 L 544 254 L 545 254 L 549 258 L 550 258 L 553 261 L 553 263 L 552 264 L 552 265 L 551 266 L 551 273 L 552 274 L 552 276 L 553 277 L 553 279 L 554 280 L 554 281 L 555 282 L 555 283 L 557 285 L 557 286 L 558 287 L 558 288 L 560 290 L 560 291 L 564 295 L 566 295 L 568 293 L 568 292 L 569 291 L 569 288 L 568 287 L 568 286 L 567 285 L 567 284 L 566 283 L 566 282 L 565 281 L 565 280 L 564 279 L 564 276 L 563 275 L 563 270 L 562 269 L 562 266 L 563 265 L 566 265 L 567 266 L 572 266 L 573 267 L 576 267 L 577 268 L 577 269 L 576 270 L 575 270 L 572 273 L 572 281 L 573 282 L 573 283 L 574 284 L 574 285 L 575 286 L 575 287 L 577 289 L 577 295 L 578 296 L 578 298 L 579 299 L 579 305 L 580 306 L 580 311 L 581 312 L 581 319 L 582 320 L 582 331 L 581 332 L 581 337 L 580 338 L 580 341 L 579 342 L 579 344 L 578 345 L 578 350 L 577 351 L 577 358 L 576 359 L 575 359 L 574 358 L 574 354 L 573 353 L 573 328 L 572 327 L 572 321 L 571 320 L 571 319 L 570 318 L 570 313 L 569 312 L 569 311 L 568 310 L 568 308 L 566 306 L 566 305 L 565 304 L 565 303 L 564 302 L 564 301 L 561 298 L 561 297 L 556 292 L 556 291 L 553 288 L 553 287 L 552 286 L 552 284 L 550 282 L 550 281 L 549 280 L 549 278 L 548 277 L 548 274 L 546 272 L 546 269 L 545 268 L 545 265 L 544 264 L 544 260 L 543 259 L 543 258 L 541 256 L 541 254 Z M 418 287 L 417 294 L 424 301 L 428 303 L 433 303 L 438 307 L 448 311 L 470 341 L 475 345 L 476 348 L 480 348 L 482 346 L 483 340 L 480 330 L 472 313 L 474 312 L 481 318 L 489 330 L 497 352 L 497 356 L 503 367 L 506 367 L 509 363 L 509 345 L 510 344 L 512 345 L 516 359 L 519 365 L 523 369 L 523 373 L 527 384 L 529 403 L 532 407 L 537 402 L 538 393 L 536 353 L 538 352 L 542 366 L 545 369 L 545 374 L 549 384 L 551 414 L 555 416 L 560 413 L 562 380 L 558 328 L 552 312 L 547 308 L 544 314 L 542 315 L 537 302 L 529 293 L 535 288 L 535 286 L 530 279 L 526 267 L 526 261 L 523 257 L 519 256 L 515 260 L 515 265 L 513 266 L 509 256 L 505 254 L 502 258 L 502 266 L 510 286 L 523 302 L 522 304 L 518 305 L 517 311 L 520 317 L 520 321 L 524 325 L 526 344 L 525 350 L 522 347 L 520 340 L 517 319 L 510 302 L 497 290 L 498 288 L 500 289 L 504 288 L 505 285 L 500 277 L 497 265 L 495 263 L 491 262 L 487 266 L 487 269 L 491 277 L 490 280 L 488 279 L 483 268 L 478 262 L 476 262 L 472 266 L 472 273 L 478 286 L 492 300 L 491 309 L 493 311 L 492 315 L 481 303 L 471 298 L 462 291 L 448 274 L 443 278 L 442 283 L 447 292 L 464 307 L 461 310 L 454 304 L 443 300 L 438 296 L 442 292 L 442 290 L 437 284 L 432 283 L 426 288 L 423 286 Z M 453 256 L 453 255 L 455 253 L 457 253 L 459 255 L 457 257 L 454 257 Z M 128 252 L 129 253 L 129 255 L 128 256 L 128 257 L 125 260 L 123 258 L 124 257 L 124 256 L 125 255 L 125 254 L 126 253 L 127 253 Z M 292 249 L 294 251 L 292 253 L 291 253 L 288 256 L 288 257 L 287 258 L 287 259 L 286 260 L 286 264 L 285 265 L 284 265 L 283 264 L 283 259 L 284 258 L 284 257 L 285 256 L 285 254 L 286 253 L 286 250 L 287 249 Z M 268 247 L 269 248 L 269 250 L 267 252 L 267 253 L 266 254 L 266 255 L 265 256 L 265 258 L 264 259 L 264 263 L 263 264 L 263 269 L 262 270 L 261 270 L 260 269 L 260 262 L 261 261 L 261 257 L 262 256 L 262 254 L 265 251 L 265 250 L 266 249 L 266 248 L 267 247 Z M 356 245 L 357 244 L 358 244 L 360 246 L 358 248 L 356 246 Z M 330 244 L 331 245 L 331 246 L 328 249 L 327 249 L 325 247 L 327 245 L 328 245 L 329 244 Z M 561 243 L 563 243 L 564 244 L 564 246 L 565 247 L 565 248 L 566 249 L 566 251 L 565 252 L 564 252 L 563 251 L 562 251 L 561 250 L 560 250 L 558 248 L 558 246 Z M 19 244 L 17 246 L 17 248 L 16 249 L 17 250 L 17 251 L 16 252 L 16 253 L 14 256 L 14 258 L 13 259 L 13 264 L 14 265 L 15 268 L 18 271 L 19 271 L 20 272 L 23 272 L 24 273 L 30 273 L 31 272 L 33 272 L 35 270 L 38 269 L 44 263 L 46 263 L 49 261 L 52 261 L 53 262 L 56 262 L 59 265 L 59 270 L 57 272 L 52 272 L 49 274 L 47 274 L 43 278 L 47 282 L 47 283 L 44 286 L 44 287 L 47 290 L 48 290 L 51 293 L 51 294 L 52 295 L 52 302 L 50 304 L 39 304 L 38 303 L 37 303 L 35 301 L 35 298 L 37 296 L 38 296 L 39 295 L 41 295 L 43 293 L 43 291 L 40 289 L 33 289 L 32 288 L 24 288 L 22 291 L 22 293 L 24 295 L 26 295 L 28 297 L 28 300 L 26 302 L 23 302 L 22 301 L 18 301 L 17 300 L 16 300 L 14 298 L 14 296 L 15 295 L 15 291 L 16 290 L 16 289 L 18 287 L 20 287 L 23 284 L 23 283 L 21 281 L 18 281 L 17 280 L 12 280 L 9 283 L 9 285 L 8 286 L 8 294 L 7 295 L 7 302 L 6 303 L 6 310 L 5 311 L 5 314 L 6 315 L 9 315 L 12 311 L 16 311 L 17 312 L 22 312 L 23 313 L 33 313 L 34 314 L 43 314 L 44 315 L 49 315 L 51 317 L 51 319 L 52 320 L 55 320 L 57 318 L 57 311 L 58 310 L 58 308 L 59 307 L 59 300 L 60 299 L 60 286 L 59 285 L 54 284 L 53 283 L 53 282 L 54 281 L 60 281 L 64 278 L 64 277 L 63 276 L 63 274 L 65 272 L 65 270 L 66 269 L 66 258 L 63 254 L 62 254 L 59 251 L 58 251 L 57 250 L 47 250 L 46 251 L 41 253 L 33 260 L 32 260 L 29 262 L 24 262 L 21 259 L 21 256 L 25 252 L 32 252 L 33 251 L 34 251 L 36 249 L 36 248 L 34 246 L 31 246 L 30 245 L 24 245 L 23 244 Z M 670 252 L 665 247 L 664 247 L 663 246 L 662 246 L 661 245 L 659 245 L 658 244 L 655 244 L 654 243 L 647 243 L 646 244 L 642 244 L 641 245 L 639 245 L 638 246 L 636 246 L 634 248 L 632 248 L 631 249 L 630 249 L 627 252 L 626 252 L 624 254 L 624 255 L 623 256 L 623 258 L 621 260 L 621 261 L 620 262 L 620 263 L 619 264 L 619 274 L 620 275 L 620 276 L 621 277 L 621 278 L 622 279 L 622 280 L 625 283 L 626 283 L 627 284 L 628 284 L 629 285 L 631 285 L 632 286 L 634 286 L 635 287 L 645 287 L 646 286 L 651 286 L 652 285 L 653 285 L 654 284 L 656 284 L 657 283 L 658 283 L 659 282 L 660 282 L 664 278 L 665 278 L 669 274 L 669 273 L 671 271 L 671 270 L 672 269 L 672 256 L 671 255 L 671 254 L 670 253 Z M 283 242 L 284 243 L 284 245 L 285 246 L 283 248 L 282 248 L 280 250 L 280 251 L 277 254 L 276 253 L 276 248 L 275 247 L 277 245 L 278 245 L 280 243 L 281 243 L 282 242 Z M 481 243 L 483 241 L 488 241 L 491 244 L 491 247 L 489 249 L 486 249 L 485 248 L 484 248 L 481 245 Z M 261 238 L 263 240 L 263 242 L 259 246 L 259 247 L 255 251 L 255 252 L 254 253 L 254 254 L 253 255 L 253 257 L 252 258 L 252 272 L 253 273 L 253 275 L 252 276 L 251 276 L 250 275 L 250 272 L 249 271 L 249 269 L 248 268 L 248 259 L 249 258 L 249 256 L 250 255 L 250 253 L 252 251 L 252 250 L 253 249 L 253 248 L 254 247 L 254 246 L 255 245 L 255 243 L 258 240 L 259 240 Z M 318 236 L 319 237 L 319 240 L 320 241 L 320 242 L 322 244 L 322 246 L 320 248 L 320 249 L 317 252 L 316 252 L 315 251 L 315 250 L 314 249 L 312 249 L 311 250 L 311 251 L 308 254 L 306 252 L 302 252 L 301 253 L 301 255 L 299 257 L 299 258 L 298 259 L 297 259 L 296 258 L 296 254 L 294 252 L 294 251 L 296 249 L 302 249 L 303 248 L 305 248 L 307 246 L 308 246 L 309 245 L 310 245 L 314 241 L 314 240 L 315 239 L 315 238 L 317 236 Z M 274 237 L 274 236 L 275 235 L 277 235 L 278 236 L 276 238 L 275 238 Z M 512 233 L 513 232 L 514 233 L 514 234 L 513 235 L 512 234 Z M 412 229 L 413 230 L 413 231 L 410 234 L 409 234 L 407 232 L 407 231 L 409 229 Z M 333 228 L 335 230 L 331 234 L 329 234 L 328 233 L 328 231 L 329 230 L 331 230 Z M 217 227 L 218 228 L 218 230 L 217 231 L 217 233 L 203 247 L 202 247 L 186 263 L 185 263 L 181 267 L 181 268 L 179 270 L 179 271 L 177 273 L 177 274 L 175 276 L 175 277 L 174 278 L 174 279 L 173 280 L 173 282 L 171 284 L 171 286 L 170 287 L 170 290 L 169 291 L 168 291 L 167 290 L 167 282 L 168 281 L 168 276 L 169 275 L 169 274 L 170 273 L 170 271 L 171 270 L 171 269 L 172 268 L 172 266 L 176 262 L 176 261 L 178 259 L 178 258 L 186 250 L 186 249 L 188 247 L 190 247 L 193 244 L 194 244 L 195 243 L 196 243 L 199 240 L 200 240 L 202 238 L 203 238 L 204 237 L 205 237 L 206 236 L 207 236 L 216 227 Z M 267 226 L 268 227 L 268 229 L 267 230 L 267 231 L 265 233 L 265 235 L 263 237 L 262 237 L 260 235 L 260 233 L 262 231 L 263 231 L 264 230 L 264 229 Z M 506 223 L 510 227 L 510 228 L 512 230 L 512 231 L 511 232 L 507 228 L 507 227 L 505 225 L 505 224 Z M 344 223 L 345 223 L 346 224 L 346 227 L 345 228 L 344 228 L 343 227 L 343 224 Z M 301 219 L 302 220 L 302 222 L 301 223 L 301 229 L 300 230 L 300 233 L 299 234 L 299 236 L 301 236 L 302 235 L 303 235 L 305 233 L 307 235 L 307 236 L 303 240 L 300 240 L 299 241 L 298 240 L 297 240 L 296 239 L 296 232 L 297 231 L 297 229 L 298 228 L 298 224 L 299 223 L 299 220 L 300 219 Z M 501 219 L 502 218 L 504 220 L 504 221 L 503 222 L 501 220 Z M 496 213 L 497 212 L 499 214 L 498 215 L 497 215 L 496 214 Z M 439 211 L 440 212 L 440 213 L 439 214 L 439 215 L 440 216 L 440 218 L 438 220 L 437 220 L 435 222 L 435 226 L 434 227 L 432 227 L 431 226 L 429 226 L 427 228 L 427 234 L 426 235 L 426 236 L 423 239 L 423 241 L 421 243 L 420 243 L 417 246 L 417 247 L 415 249 L 411 249 L 409 251 L 409 252 L 408 253 L 408 255 L 406 257 L 406 258 L 405 259 L 405 260 L 404 261 L 404 262 L 402 264 L 400 264 L 399 265 L 399 266 L 396 269 L 393 269 L 389 273 L 388 273 L 386 271 L 386 270 L 385 269 L 385 268 L 384 267 L 384 265 L 385 264 L 386 265 L 393 265 L 395 263 L 396 263 L 397 262 L 398 262 L 399 261 L 399 260 L 404 255 L 404 252 L 405 251 L 405 246 L 407 244 L 408 245 L 413 245 L 415 243 L 416 243 L 421 238 L 421 237 L 423 235 L 423 232 L 424 231 L 424 225 L 422 223 L 422 222 L 423 221 L 426 221 L 427 220 L 428 220 L 429 219 L 430 219 L 431 218 L 432 218 L 434 216 L 435 216 L 436 215 L 436 214 Z M 275 209 L 277 211 L 277 212 L 274 215 L 272 213 L 272 212 Z M 280 205 L 281 205 L 283 207 L 283 209 L 284 210 L 284 211 L 283 212 L 282 212 L 280 210 L 279 210 L 278 209 L 278 207 Z M 222 205 L 223 204 L 224 205 L 224 206 L 223 207 L 222 206 Z M 425 203 L 427 205 L 427 207 L 426 208 L 424 208 L 422 206 Z M 218 202 L 219 201 L 220 201 L 221 202 L 220 203 L 219 203 Z M 270 201 L 271 200 L 272 200 L 273 201 L 273 202 L 272 203 L 271 203 L 270 202 Z M 483 199 L 484 198 L 485 199 L 487 199 L 492 204 L 492 205 L 494 207 L 494 208 L 496 210 L 496 211 L 495 212 L 494 212 L 492 210 L 492 209 L 483 200 Z M 370 198 L 371 199 L 370 200 L 370 201 L 369 202 L 369 203 L 357 215 L 356 215 L 355 214 L 355 209 L 357 207 L 358 207 L 359 206 L 361 206 L 362 205 L 363 205 L 368 200 L 368 199 L 369 198 Z M 315 204 L 315 205 L 314 206 L 314 207 L 312 209 L 311 208 L 310 208 L 309 207 L 307 207 L 305 209 L 305 210 L 303 212 L 301 212 L 299 210 L 297 212 L 297 213 L 294 216 L 293 216 L 292 215 L 292 214 L 291 213 L 290 213 L 289 214 L 289 215 L 288 216 L 287 216 L 286 215 L 286 213 L 285 212 L 287 210 L 294 210 L 295 209 L 297 209 L 299 207 L 300 207 L 301 206 L 302 206 L 303 205 L 303 204 L 306 201 L 306 199 L 307 198 L 308 198 L 310 200 L 310 201 L 312 203 L 314 203 Z M 292 199 L 292 197 L 293 196 L 297 196 L 298 197 L 297 198 L 297 199 L 296 200 L 295 200 L 294 201 Z M 533 196 L 534 195 L 535 196 L 535 197 L 534 198 L 533 197 Z M 361 194 L 362 195 L 362 196 L 358 200 L 358 201 L 356 203 L 354 201 L 354 197 L 356 195 L 360 195 Z M 431 194 L 432 193 L 433 193 L 434 194 L 433 195 L 432 195 Z M 64 194 L 65 193 L 67 193 L 69 195 L 69 196 L 68 197 L 66 197 L 64 195 Z M 531 193 L 532 192 L 533 193 L 533 194 L 532 195 L 531 194 Z M 206 198 L 207 197 L 207 196 L 211 192 L 216 192 L 218 194 L 217 195 L 217 197 L 218 198 L 218 199 L 217 200 L 216 200 L 214 198 L 209 198 L 208 199 L 207 199 Z M 202 188 L 203 189 L 203 191 L 202 192 L 202 193 L 201 194 L 201 195 L 200 196 L 200 197 L 199 198 L 199 199 L 198 200 L 198 202 L 196 204 L 195 204 L 190 199 L 190 192 L 195 187 L 197 187 L 198 188 Z M 526 187 L 527 186 L 530 189 L 530 190 L 529 191 L 526 188 Z M 322 186 L 323 187 L 323 189 L 320 192 L 319 192 L 317 190 L 317 188 L 318 187 L 319 187 L 320 186 Z M 246 187 L 246 188 L 244 190 L 243 190 L 242 191 L 239 191 L 238 192 L 237 192 L 236 193 L 235 193 L 231 197 L 226 192 L 228 190 L 229 190 L 232 187 L 233 187 L 234 186 L 236 186 L 237 185 L 244 185 Z M 207 185 L 208 186 L 205 189 L 204 189 L 203 188 L 203 187 L 205 185 Z M 354 183 L 354 185 L 356 187 L 356 188 L 354 190 L 350 190 L 347 193 L 347 194 L 346 195 L 345 195 L 343 193 L 342 193 L 341 192 L 341 191 L 344 188 L 345 188 L 349 184 L 350 184 L 352 182 L 353 182 Z M 207 185 L 208 184 L 208 183 L 210 181 L 218 181 L 220 183 L 220 184 L 219 185 L 216 185 L 215 186 L 208 186 Z M 337 178 L 339 180 L 339 181 L 338 182 L 338 183 L 336 185 L 336 186 L 335 187 L 335 191 L 336 192 L 338 192 L 339 193 L 339 196 L 337 198 L 336 198 L 335 197 L 334 197 L 329 202 L 326 202 L 325 203 L 325 204 L 323 206 L 323 207 L 322 208 L 322 209 L 321 210 L 320 210 L 319 209 L 319 206 L 317 204 L 317 203 L 319 201 L 321 201 L 323 199 L 325 199 L 328 196 L 329 196 L 331 194 L 331 193 L 332 192 L 332 183 Z M 608 180 L 610 178 L 611 178 L 612 177 L 615 177 L 616 178 L 616 179 L 612 183 L 611 183 Z M 437 176 L 439 178 L 439 181 L 438 182 L 435 182 L 433 180 L 433 179 L 435 177 L 436 177 Z M 410 176 L 411 177 L 411 178 L 416 183 L 416 184 L 414 186 L 414 192 L 415 193 L 415 195 L 414 196 L 414 197 L 412 199 L 412 203 L 410 205 L 410 211 L 407 214 L 407 215 L 406 216 L 406 217 L 402 221 L 402 222 L 401 223 L 401 224 L 399 226 L 399 227 L 394 232 L 393 232 L 389 236 L 389 240 L 387 242 L 385 242 L 381 246 L 379 244 L 379 243 L 382 240 L 382 239 L 384 237 L 384 236 L 385 235 L 385 233 L 387 231 L 388 231 L 389 230 L 390 230 L 391 229 L 391 228 L 397 222 L 397 221 L 400 218 L 400 214 L 399 213 L 399 211 L 400 210 L 401 210 L 405 206 L 405 205 L 406 204 L 406 203 L 407 202 L 407 201 L 408 200 L 408 195 L 409 194 L 409 189 L 406 186 L 405 186 L 404 185 L 402 185 L 401 184 L 401 183 L 403 181 L 404 181 L 409 176 Z M 388 174 L 391 177 L 391 178 L 392 179 L 392 181 L 390 183 L 390 187 L 392 189 L 393 189 L 397 193 L 397 194 L 398 195 L 398 197 L 396 199 L 394 197 L 391 197 L 387 201 L 387 203 L 384 206 L 383 206 L 382 207 L 382 208 L 381 209 L 380 212 L 382 214 L 382 215 L 386 219 L 386 220 L 384 222 L 383 222 L 381 220 L 380 220 L 378 218 L 378 217 L 377 216 L 376 216 L 374 218 L 373 218 L 372 219 L 372 220 L 369 223 L 368 223 L 367 224 L 367 225 L 366 226 L 366 229 L 368 231 L 368 232 L 371 235 L 371 236 L 372 237 L 372 238 L 371 239 L 371 244 L 373 246 L 375 246 L 376 245 L 377 245 L 378 246 L 378 247 L 376 250 L 374 250 L 373 249 L 372 249 L 370 251 L 370 252 L 369 253 L 369 255 L 371 257 L 371 259 L 370 260 L 368 260 L 367 261 L 366 261 L 364 267 L 362 269 L 361 269 L 360 270 L 360 273 L 359 274 L 359 278 L 358 279 L 358 280 L 356 282 L 356 284 L 354 286 L 353 286 L 352 287 L 352 289 L 350 291 L 347 291 L 346 292 L 345 292 L 344 293 L 343 296 L 342 297 L 341 297 L 340 296 L 340 295 L 338 293 L 338 292 L 339 291 L 341 291 L 342 290 L 343 290 L 345 288 L 348 287 L 351 284 L 351 283 L 354 278 L 354 276 L 355 275 L 355 263 L 357 261 L 360 261 L 361 260 L 362 260 L 365 257 L 365 255 L 366 254 L 366 251 L 367 250 L 367 238 L 366 237 L 366 236 L 365 235 L 364 232 L 362 230 L 362 229 L 361 228 L 359 228 L 358 229 L 358 230 L 354 234 L 353 234 L 352 235 L 350 235 L 349 236 L 349 238 L 347 240 L 344 240 L 340 244 L 338 244 L 335 247 L 334 247 L 332 245 L 332 244 L 334 242 L 335 242 L 341 236 L 345 236 L 346 235 L 347 235 L 352 230 L 352 229 L 355 224 L 355 222 L 357 220 L 359 222 L 361 222 L 362 221 L 365 220 L 368 217 L 369 217 L 373 213 L 374 213 L 374 212 L 379 207 L 379 206 L 383 201 L 383 198 L 385 196 L 385 195 L 386 194 L 386 175 L 387 174 Z M 354 174 L 355 175 L 356 175 L 357 176 L 357 178 L 355 180 L 354 180 L 353 179 L 353 178 L 352 177 L 352 176 Z M 474 172 L 475 171 L 476 171 L 477 172 L 476 173 L 475 173 Z M 491 171 L 492 170 L 493 170 L 496 173 L 495 174 L 494 174 Z M 214 171 L 216 169 L 218 169 L 219 170 L 219 172 L 218 173 L 216 173 Z M 281 167 L 283 169 L 283 171 L 282 172 L 281 172 L 279 170 L 279 169 Z M 358 168 L 358 167 L 359 166 L 361 166 L 362 167 L 360 169 L 359 169 Z M 262 166 L 262 167 L 260 169 L 259 169 L 258 170 L 256 170 L 255 171 L 254 171 L 254 172 L 253 173 L 252 173 L 251 174 L 245 174 L 244 173 L 244 172 L 246 170 L 248 170 L 249 169 L 250 169 L 252 167 L 255 167 L 256 166 L 258 166 L 259 165 L 261 165 Z M 234 164 L 235 165 L 235 168 L 233 170 L 232 170 L 231 171 L 231 173 L 228 176 L 223 176 L 222 175 L 222 174 L 223 173 L 224 173 L 227 170 L 228 170 Z M 276 166 L 276 167 L 274 169 L 274 171 L 272 173 L 271 173 L 268 176 L 265 176 L 261 180 L 260 180 L 259 179 L 258 179 L 257 178 L 257 176 L 258 175 L 259 175 L 260 174 L 262 174 L 263 173 L 264 173 L 266 171 L 267 171 L 269 169 L 269 168 L 270 167 L 270 166 L 273 163 Z M 225 160 L 227 162 L 227 164 L 225 166 L 224 166 L 223 167 L 222 167 L 221 166 L 221 164 L 222 163 L 222 162 L 224 160 Z M 238 158 L 239 159 L 239 160 L 237 162 L 237 163 L 235 165 L 234 164 L 234 161 L 237 158 Z M 293 158 L 294 157 L 295 157 L 297 159 L 296 160 L 295 160 Z M 352 156 L 353 157 L 353 158 L 354 159 L 354 161 L 353 162 L 353 166 L 354 167 L 354 170 L 353 171 L 353 172 L 351 174 L 347 170 L 347 169 L 350 166 L 350 157 L 351 156 Z M 383 156 L 384 155 L 385 156 L 387 156 L 389 158 L 391 158 L 392 159 L 393 159 L 395 161 L 395 162 L 396 163 L 396 167 L 395 168 L 390 168 L 388 170 L 387 170 L 384 167 L 384 158 L 383 157 Z M 404 153 L 405 153 L 407 155 L 408 155 L 410 157 L 411 157 L 412 158 L 412 160 L 410 162 L 410 163 L 409 164 L 409 165 L 413 169 L 413 170 L 410 173 L 409 173 L 407 171 L 407 169 L 406 168 L 406 166 L 405 165 L 405 163 L 404 162 L 404 157 L 403 156 L 403 154 Z M 237 152 L 238 153 L 236 155 L 236 156 L 234 158 L 232 156 L 232 154 L 234 152 Z M 243 149 L 243 148 L 244 147 L 246 147 L 247 148 L 245 150 L 244 150 Z M 72 147 L 76 143 L 77 143 L 78 142 L 87 142 L 88 143 L 90 143 L 91 144 L 92 144 L 99 151 L 100 151 L 102 153 L 102 154 L 105 157 L 105 169 L 103 171 L 102 171 L 101 170 L 100 170 L 96 166 L 95 166 L 93 164 L 92 164 L 89 161 L 88 161 L 83 156 L 81 156 L 77 152 L 76 152 L 72 148 Z M 347 141 L 349 141 L 350 142 L 353 142 L 354 143 L 354 144 L 352 146 L 352 147 L 355 150 L 355 151 L 354 152 L 354 153 L 352 155 L 351 155 L 350 154 L 350 153 L 349 152 L 349 148 L 347 146 L 347 144 L 346 143 L 346 142 Z M 235 141 L 237 143 L 233 147 L 233 149 L 232 150 L 232 151 L 230 153 L 229 153 L 227 151 L 227 150 L 232 145 L 232 142 L 233 141 Z M 363 138 L 364 138 L 365 139 L 365 140 L 366 141 L 366 142 L 367 143 L 367 144 L 368 145 L 368 147 L 369 148 L 369 151 L 371 153 L 371 159 L 373 161 L 373 166 L 374 167 L 374 173 L 375 174 L 375 180 L 376 181 L 376 187 L 375 188 L 374 188 L 373 187 L 373 183 L 372 182 L 372 181 L 371 180 L 370 180 L 369 179 L 368 179 L 367 178 L 364 178 L 363 177 L 363 176 L 364 175 L 366 175 L 369 172 L 369 171 L 370 170 L 370 168 L 369 167 L 369 162 L 368 161 L 368 158 L 367 157 L 367 156 L 366 155 L 366 154 L 365 153 L 364 153 L 363 152 L 361 152 L 360 151 L 358 151 L 356 149 L 359 146 L 360 146 L 362 144 L 362 139 Z M 276 136 L 277 137 L 277 138 L 276 139 L 276 140 L 275 141 L 275 142 L 274 143 L 274 145 L 275 146 L 275 148 L 272 151 L 272 152 L 271 153 L 271 155 L 272 156 L 272 159 L 271 160 L 270 160 L 269 159 L 268 159 L 267 158 L 257 158 L 256 157 L 259 154 L 260 154 L 266 148 L 266 147 L 268 145 L 268 142 L 269 141 L 270 141 L 272 139 L 273 139 Z M 345 135 L 347 135 L 348 136 L 348 137 L 346 139 L 345 139 L 343 137 Z M 377 132 L 379 132 L 380 133 L 385 133 L 389 137 L 387 139 L 385 139 L 384 140 L 383 140 L 382 141 L 382 143 L 387 148 L 387 150 L 384 153 L 383 153 L 381 151 L 381 150 L 380 149 L 380 148 L 379 147 L 379 143 L 378 142 L 378 140 L 377 139 L 377 138 L 376 137 L 376 133 Z M 182 133 L 177 133 L 175 135 L 175 136 L 174 137 L 174 138 L 173 139 L 173 150 L 171 152 L 171 153 L 169 155 L 169 156 L 166 159 L 166 160 L 165 161 L 165 162 L 163 164 L 163 165 L 162 166 L 162 167 L 161 168 L 161 170 L 160 171 L 160 174 L 162 176 L 163 176 L 164 177 L 165 177 L 166 178 L 166 179 L 163 182 L 163 186 L 165 188 L 166 188 L 168 190 L 177 190 L 178 189 L 179 189 L 180 188 L 181 188 L 183 186 L 184 186 L 186 184 L 186 183 L 185 182 L 177 182 L 176 183 L 174 183 L 173 182 L 171 182 L 170 181 L 169 181 L 167 179 L 167 178 L 168 177 L 171 177 L 172 176 L 175 176 L 176 175 L 177 175 L 179 173 L 180 173 L 181 172 L 182 172 L 184 170 L 185 170 L 189 166 L 190 166 L 192 164 L 191 163 L 189 163 L 187 165 L 185 165 L 184 166 L 182 166 L 181 167 L 180 167 L 179 168 L 177 168 L 176 169 L 172 169 L 170 167 L 170 164 L 179 155 L 180 155 L 181 156 L 181 159 L 184 159 L 187 156 L 187 155 L 188 154 L 188 152 L 189 151 L 189 150 L 188 149 L 188 148 L 187 147 L 187 146 L 185 144 L 182 144 L 181 143 L 181 142 L 182 141 L 183 141 L 185 139 L 185 138 L 186 137 L 186 136 L 184 134 L 183 134 Z M 397 130 L 398 129 L 399 129 L 400 130 L 401 130 L 402 131 L 404 131 L 405 132 L 406 132 L 407 133 L 408 133 L 409 134 L 411 134 L 412 135 L 413 135 L 414 136 L 415 136 L 416 137 L 417 137 L 418 138 L 419 138 L 420 139 L 421 139 L 422 140 L 424 140 L 425 141 L 426 141 L 427 142 L 428 142 L 429 143 L 430 143 L 432 145 L 434 145 L 437 148 L 438 148 L 443 153 L 441 155 L 439 153 L 438 153 L 437 152 L 436 152 L 435 151 L 434 151 L 430 147 L 429 147 L 428 146 L 427 146 L 426 145 L 425 145 L 424 144 L 423 144 L 422 143 L 421 143 L 420 142 L 419 142 L 417 140 L 415 140 L 414 139 L 413 139 L 412 138 L 410 138 L 408 136 L 406 136 L 404 138 L 404 139 L 403 140 L 403 142 L 404 143 L 405 143 L 408 146 L 408 147 L 406 149 L 406 150 L 405 151 L 404 151 L 402 149 L 400 149 L 399 150 L 394 150 L 393 149 L 398 144 L 399 144 L 399 143 L 400 142 L 400 137 L 398 135 L 398 132 L 397 131 Z M 573 134 L 571 136 L 570 139 L 566 145 L 566 147 L 564 151 L 564 160 L 568 167 L 569 167 L 573 171 L 577 172 L 580 175 L 579 179 L 585 188 L 588 188 L 590 186 L 590 184 L 593 181 L 598 181 L 602 185 L 604 190 L 604 193 L 600 197 L 596 196 L 594 198 L 593 201 L 594 202 L 595 207 L 597 209 L 599 214 L 602 217 L 603 224 L 605 226 L 608 226 L 611 223 L 611 221 L 614 218 L 616 218 L 621 215 L 623 215 L 626 213 L 628 213 L 632 211 L 634 212 L 634 214 L 629 220 L 618 237 L 615 240 L 612 246 L 613 247 L 615 246 L 618 246 L 621 244 L 626 243 L 628 241 L 633 240 L 638 237 L 640 237 L 642 235 L 647 234 L 653 231 L 656 231 L 659 234 L 661 234 L 663 232 L 663 228 L 662 227 L 660 220 L 657 217 L 655 219 L 654 223 L 652 225 L 646 228 L 641 229 L 638 231 L 636 231 L 635 230 L 638 224 L 642 219 L 642 217 L 647 213 L 648 209 L 652 205 L 652 200 L 650 198 L 650 195 L 648 192 L 645 194 L 643 197 L 643 199 L 641 201 L 639 201 L 634 204 L 632 204 L 625 208 L 622 208 L 619 210 L 616 210 L 614 212 L 612 212 L 611 213 L 609 213 L 605 209 L 605 206 L 609 202 L 611 198 L 619 190 L 623 184 L 625 183 L 626 180 L 629 178 L 635 171 L 635 169 L 633 167 L 622 168 L 618 170 L 611 170 L 608 172 L 603 172 L 602 173 L 597 173 L 596 174 L 587 175 L 586 173 L 589 170 L 589 168 L 586 166 L 582 166 L 580 165 L 573 157 L 574 150 L 578 144 L 588 135 L 592 135 L 593 134 L 602 135 L 606 139 L 607 141 L 607 147 L 603 155 L 604 156 L 608 155 L 612 151 L 613 151 L 619 144 L 619 143 L 615 139 L 615 137 L 613 133 L 605 126 L 603 125 L 600 125 L 599 124 L 596 124 L 595 125 L 588 125 L 585 128 L 581 128 L 578 131 Z M 336 130 L 336 129 L 337 128 L 339 128 L 340 127 L 341 127 L 342 126 L 342 125 L 343 124 L 342 123 L 342 122 L 341 121 L 342 120 L 345 120 L 348 123 L 349 123 L 350 124 L 351 124 L 354 127 L 355 127 L 356 128 L 356 129 L 355 130 L 353 130 L 352 129 L 349 129 L 348 128 L 346 128 L 345 129 L 343 129 L 342 130 L 342 131 L 341 132 L 339 132 L 338 131 L 337 131 Z M 414 116 L 415 116 L 416 117 L 416 123 L 417 124 L 417 125 L 419 127 L 418 128 L 415 128 L 414 127 L 413 127 L 409 123 L 411 121 L 412 121 L 413 120 L 413 117 Z M 387 115 L 388 114 L 389 114 L 390 115 L 391 115 L 393 117 L 394 117 L 396 119 L 398 119 L 400 121 L 400 123 L 396 127 L 395 127 L 393 125 L 389 125 L 388 124 L 388 122 L 389 121 L 389 119 L 388 118 L 388 117 L 387 116 Z M 363 114 L 367 114 L 369 112 L 373 112 L 375 114 L 375 115 L 372 118 L 372 121 L 373 122 L 373 123 L 374 123 L 375 124 L 377 124 L 378 125 L 378 127 L 377 128 L 377 129 L 375 131 L 374 131 L 373 130 L 373 129 L 372 128 L 372 127 L 371 126 L 371 125 L 365 119 L 364 119 L 361 116 Z M 106 105 L 114 105 L 116 107 L 117 107 L 118 108 L 119 108 L 122 111 L 123 111 L 131 119 L 131 120 L 133 122 L 133 123 L 134 124 L 134 125 L 135 126 L 135 127 L 136 128 L 136 132 L 135 133 L 135 134 L 133 136 L 124 136 L 122 134 L 121 134 L 120 133 L 119 133 L 106 120 L 106 119 L 105 118 L 105 117 L 104 116 L 104 114 L 103 113 L 103 112 L 104 111 L 104 107 Z M 341 105 L 343 103 L 352 103 L 353 104 L 358 104 L 359 105 L 360 105 L 361 106 L 361 107 L 360 108 L 359 108 L 358 109 L 358 111 L 356 113 L 353 113 L 351 111 L 349 111 L 348 110 L 347 110 L 346 109 L 345 109 L 344 108 L 342 108 L 341 107 Z M 330 84 L 317 104 L 305 103 L 304 113 L 321 108 L 331 117 L 302 115 L 300 104 L 313 94 L 296 98 L 291 116 L 331 137 L 341 155 L 323 142 L 298 178 L 279 186 L 274 198 L 268 194 L 240 257 L 250 304 L 272 303 L 262 319 L 265 342 L 255 340 L 254 324 L 240 308 L 194 306 L 186 289 L 178 289 L 235 235 L 236 202 L 261 186 L 270 190 L 305 166 L 319 137 L 290 129 L 277 137 L 277 119 L 269 114 L 261 130 L 268 128 L 269 135 L 248 147 L 258 132 L 253 115 L 250 133 L 240 139 L 246 133 L 242 121 L 234 135 L 228 132 L 180 197 L 163 196 L 157 185 L 169 143 L 145 162 L 155 205 L 181 204 L 197 219 L 216 216 L 165 260 L 158 306 L 181 331 L 227 333 L 228 339 L 208 336 L 185 360 L 178 357 L 167 328 L 144 310 L 151 283 L 146 261 L 128 246 L 113 255 L 117 242 L 103 252 L 106 239 L 91 253 L 96 263 L 129 271 L 121 318 L 148 344 L 154 371 L 167 386 L 236 382 L 270 355 L 263 375 L 247 385 L 275 393 L 278 404 L 309 396 L 320 405 L 329 387 L 346 405 L 357 401 L 359 391 L 368 400 L 351 415 L 364 433 L 381 434 L 346 441 L 346 457 L 357 461 L 341 472 L 333 538 L 322 532 L 300 536 L 329 587 L 353 587 L 334 540 L 367 541 L 381 516 L 421 516 L 444 478 L 445 489 L 462 480 L 462 469 L 451 460 L 422 494 L 378 505 L 360 531 L 345 530 L 346 494 L 359 487 L 359 476 L 372 475 L 392 457 L 427 473 L 448 458 L 443 446 L 415 432 L 385 448 L 400 436 L 401 425 L 412 430 L 418 415 L 442 439 L 467 444 L 530 436 L 545 425 L 429 338 L 421 378 L 392 402 L 382 398 L 383 385 L 398 391 L 402 377 L 413 377 L 420 364 L 418 322 L 407 297 L 386 325 L 392 283 L 405 281 L 401 295 L 415 278 L 436 277 L 442 264 L 467 264 L 470 251 L 495 256 L 500 238 L 521 254 L 535 242 L 541 250 L 531 258 L 537 285 L 561 322 L 572 437 L 584 420 L 592 333 L 590 298 L 577 269 L 591 261 L 534 174 L 490 136 L 480 139 L 527 186 L 468 140 L 466 146 L 490 168 L 460 145 L 456 153 L 472 168 L 458 160 L 455 167 L 483 197 L 456 176 L 452 185 L 460 191 L 444 198 L 440 211 L 434 196 L 447 187 L 443 167 L 453 155 L 431 134 L 437 121 L 407 106 L 400 111 L 386 101 L 377 105 L 353 96 L 334 104 L 328 95 L 366 92 L 412 103 L 460 129 L 453 132 L 443 123 L 439 135 L 447 138 L 474 135 L 483 121 L 386 87 Z M 143 66 L 137 72 L 134 72 L 129 77 L 127 81 L 128 91 L 132 96 L 136 98 L 156 99 L 162 104 L 163 108 L 161 110 L 153 110 L 146 106 L 142 111 L 140 111 L 133 102 L 125 98 L 118 96 L 110 96 L 105 98 L 98 105 L 95 111 L 95 121 L 96 122 L 96 126 L 98 128 L 99 132 L 98 133 L 82 132 L 74 136 L 67 143 L 67 145 L 59 155 L 60 158 L 65 158 L 78 169 L 90 176 L 95 182 L 95 184 L 93 186 L 90 186 L 89 185 L 68 183 L 67 182 L 63 182 L 57 180 L 50 180 L 49 179 L 45 180 L 43 182 L 43 185 L 45 188 L 74 218 L 75 226 L 72 229 L 70 229 L 67 227 L 49 221 L 44 218 L 39 217 L 36 214 L 39 211 L 46 210 L 48 208 L 48 206 L 46 204 L 43 204 L 40 202 L 35 202 L 32 205 L 29 215 L 27 217 L 26 222 L 24 225 L 21 234 L 23 237 L 32 241 L 35 240 L 37 238 L 37 236 L 31 231 L 31 229 L 34 227 L 44 231 L 47 231 L 53 235 L 64 238 L 67 241 L 68 245 L 72 244 L 78 231 L 78 224 L 81 221 L 83 215 L 86 212 L 84 209 L 79 211 L 73 205 L 73 202 L 78 195 L 85 196 L 87 198 L 87 201 L 89 202 L 94 197 L 97 190 L 102 184 L 104 179 L 111 171 L 114 166 L 114 150 L 110 144 L 114 143 L 116 145 L 129 145 L 137 141 L 141 137 L 142 133 L 144 131 L 144 118 L 143 117 L 144 115 L 153 122 L 156 122 L 161 117 L 167 114 L 170 111 L 172 107 L 172 101 L 170 95 L 166 90 L 159 87 L 140 87 L 136 83 L 136 80 L 138 78 L 143 78 L 148 81 L 151 81 L 154 79 L 153 75 L 150 72 L 148 72 Z M 510 67 L 512 65 L 512 64 L 513 63 L 513 62 L 516 59 L 518 59 L 520 61 L 521 61 L 526 66 L 526 71 L 525 72 L 524 72 L 522 70 L 522 69 L 520 69 L 517 72 L 514 72 L 512 70 L 511 70 L 510 69 Z M 216 26 L 213 26 L 212 27 L 211 27 L 210 28 L 209 28 L 208 29 L 207 29 L 206 30 L 205 30 L 204 31 L 203 31 L 201 33 L 201 34 L 200 35 L 200 36 L 201 37 L 205 37 L 208 40 L 208 41 L 209 42 L 209 43 L 210 44 L 210 45 L 211 46 L 211 47 L 212 48 L 212 49 L 213 50 L 213 51 L 214 52 L 214 53 L 215 54 L 215 55 L 216 56 L 216 58 L 218 60 L 218 62 L 220 64 L 220 68 L 221 69 L 221 70 L 220 71 L 220 72 L 217 75 L 216 75 L 215 76 L 212 76 L 205 69 L 205 68 L 204 67 L 204 66 L 203 65 L 203 64 L 201 62 L 201 61 L 200 60 L 200 57 L 198 55 L 198 54 L 197 53 L 197 51 L 195 49 L 195 48 L 194 47 L 194 45 L 193 44 L 193 41 L 196 38 L 196 37 L 195 36 L 192 36 L 191 37 L 190 37 L 189 38 L 188 38 L 187 39 L 186 39 L 185 40 L 184 40 L 183 41 L 182 41 L 181 42 L 180 42 L 176 46 L 177 47 L 178 47 L 179 48 L 180 48 L 184 52 L 184 53 L 185 54 L 185 55 L 187 57 L 187 59 L 188 60 L 188 61 L 189 62 L 189 63 L 190 64 L 190 66 L 191 67 L 191 68 L 192 69 L 192 70 L 195 73 L 195 75 L 197 77 L 197 78 L 202 83 L 204 83 L 205 84 L 213 84 L 214 83 L 216 83 L 220 79 L 222 79 L 226 75 L 226 74 L 227 73 L 227 62 L 226 61 L 226 59 L 225 58 L 225 56 L 224 55 L 224 54 L 223 53 L 223 52 L 222 51 L 222 50 L 221 49 L 221 47 L 219 45 L 219 44 L 218 43 L 218 42 L 217 41 L 217 39 L 216 38 L 216 37 L 214 35 L 214 32 L 217 29 L 217 27 Z M 454 21 L 453 24 L 456 29 L 453 37 L 448 46 L 443 59 L 440 62 L 436 62 L 435 67 L 441 71 L 449 71 L 450 67 L 448 62 L 450 56 L 453 51 L 455 50 L 456 51 L 456 56 L 455 57 L 454 74 L 456 76 L 459 75 L 473 60 L 477 58 L 478 60 L 475 68 L 469 75 L 467 75 L 465 77 L 467 82 L 475 86 L 480 87 L 484 91 L 487 92 L 499 101 L 508 105 L 519 115 L 523 115 L 526 112 L 526 109 L 528 107 L 535 105 L 537 107 L 536 114 L 533 117 L 532 116 L 530 117 L 528 122 L 536 130 L 540 132 L 544 138 L 553 147 L 557 147 L 560 143 L 558 141 L 558 139 L 579 118 L 584 114 L 589 115 L 593 112 L 593 110 L 580 98 L 576 103 L 577 107 L 575 110 L 555 129 L 550 132 L 544 126 L 544 121 L 546 118 L 548 103 L 551 100 L 554 100 L 562 96 L 571 97 L 575 94 L 575 92 L 566 84 L 562 84 L 558 91 L 552 93 L 551 92 L 551 87 L 554 83 L 558 82 L 559 79 L 547 68 L 544 68 L 542 70 L 542 84 L 540 94 L 533 99 L 521 103 L 516 103 L 515 100 L 520 94 L 518 91 L 516 91 L 511 95 L 507 95 L 499 90 L 498 86 L 501 81 L 505 77 L 507 77 L 510 80 L 510 86 L 513 87 L 517 83 L 517 81 L 524 72 L 528 73 L 532 70 L 536 63 L 536 61 L 514 46 L 508 45 L 506 48 L 507 55 L 497 69 L 497 71 L 488 84 L 485 84 L 480 78 L 485 66 L 490 58 L 494 47 L 497 44 L 501 43 L 502 40 L 491 34 L 469 56 L 467 56 L 466 55 L 466 47 L 467 46 L 468 25 L 458 19 L 456 19 Z M 308 10 L 312 10 L 313 11 L 315 11 L 322 18 L 322 21 L 323 22 L 323 24 L 324 25 L 324 40 L 323 41 L 323 42 L 321 44 L 320 44 L 318 46 L 316 46 L 315 47 L 311 47 L 309 45 L 309 42 L 308 41 L 308 28 L 307 27 L 307 20 L 306 19 L 306 12 Z M 262 10 L 259 10 L 258 11 L 257 11 L 256 12 L 254 12 L 253 13 L 251 13 L 250 14 L 249 14 L 248 15 L 247 15 L 246 16 L 246 19 L 247 20 L 250 20 L 252 22 L 252 25 L 253 26 L 253 27 L 254 28 L 254 30 L 255 31 L 255 32 L 256 33 L 256 35 L 255 36 L 253 36 L 248 31 L 247 31 L 242 26 L 241 26 L 238 23 L 238 22 L 237 21 L 236 21 L 235 20 L 229 20 L 228 21 L 225 21 L 224 22 L 223 22 L 220 25 L 220 27 L 221 28 L 224 28 L 228 32 L 228 35 L 229 36 L 229 38 L 230 39 L 230 41 L 231 42 L 231 46 L 232 47 L 232 48 L 233 49 L 233 51 L 234 52 L 234 54 L 235 55 L 235 58 L 236 59 L 236 62 L 237 63 L 237 65 L 236 66 L 236 67 L 235 68 L 235 71 L 241 71 L 242 70 L 243 70 L 244 69 L 246 69 L 247 68 L 248 68 L 251 65 L 251 64 L 250 63 L 247 63 L 245 61 L 245 60 L 244 59 L 244 57 L 243 56 L 243 55 L 242 54 L 242 50 L 241 49 L 241 48 L 240 47 L 240 45 L 239 44 L 239 43 L 240 42 L 241 42 L 243 44 L 244 44 L 247 47 L 248 47 L 253 52 L 254 52 L 263 61 L 264 61 L 265 62 L 266 62 L 267 63 L 268 63 L 269 62 L 270 62 L 272 60 L 272 57 L 270 55 L 270 50 L 268 48 L 268 45 L 267 44 L 267 42 L 266 41 L 266 38 L 265 37 L 265 35 L 264 34 L 264 31 L 263 30 L 263 29 L 262 28 L 262 25 L 261 24 L 261 23 L 260 22 L 260 16 L 263 13 L 263 11 Z M 356 7 L 361 7 L 367 13 L 367 14 L 368 15 L 368 17 L 369 18 L 369 37 L 368 38 L 368 40 L 366 42 L 366 43 L 362 47 L 358 47 L 357 46 L 355 46 L 353 44 L 353 43 L 351 41 L 351 40 L 350 39 L 350 36 L 349 35 L 349 22 L 350 21 L 350 16 L 351 15 L 351 14 L 352 13 L 352 12 L 354 10 L 354 9 Z M 402 4 L 399 4 L 398 5 L 396 5 L 392 9 L 392 10 L 390 12 L 390 13 L 389 14 L 389 15 L 388 16 L 388 18 L 387 19 L 387 25 L 388 26 L 388 28 L 389 29 L 389 30 L 399 40 L 399 41 L 400 42 L 400 49 L 398 51 L 395 51 L 394 50 L 393 50 L 390 47 L 390 46 L 389 45 L 389 44 L 388 43 L 388 37 L 387 36 L 385 36 L 384 37 L 384 38 L 382 40 L 382 50 L 381 51 L 381 55 L 382 56 L 383 56 L 384 55 L 385 55 L 386 56 L 387 56 L 389 58 L 392 58 L 393 59 L 398 59 L 399 58 L 401 58 L 404 55 L 406 55 L 409 52 L 409 51 L 410 50 L 410 49 L 411 48 L 411 47 L 412 46 L 412 40 L 411 39 L 411 37 L 410 36 L 410 34 L 406 30 L 406 29 L 404 27 L 404 26 L 403 26 L 402 25 L 402 24 L 400 22 L 400 21 L 398 19 L 398 15 L 400 13 L 402 13 L 406 17 L 406 18 L 407 19 L 407 23 L 408 24 L 408 26 L 409 27 L 411 27 L 414 24 L 414 22 L 415 21 L 415 15 L 416 14 L 416 11 L 415 10 L 415 9 L 414 8 L 410 8 L 409 7 L 408 7 L 407 6 L 406 6 L 405 5 L 403 5 Z M 378 12 L 377 11 L 376 8 L 371 3 L 370 3 L 368 1 L 365 1 L 364 0 L 357 0 L 356 1 L 354 1 L 353 2 L 350 3 L 343 10 L 343 11 L 340 16 L 340 18 L 339 19 L 339 22 L 338 23 L 338 26 L 337 27 L 336 27 L 335 26 L 335 22 L 334 21 L 334 16 L 332 14 L 331 11 L 325 5 L 324 5 L 323 4 L 321 4 L 320 3 L 317 3 L 316 2 L 305 2 L 304 3 L 296 3 L 295 4 L 292 4 L 291 5 L 291 7 L 290 8 L 290 9 L 291 10 L 293 10 L 295 12 L 295 14 L 296 15 L 296 24 L 297 25 L 297 37 L 298 38 L 298 40 L 299 41 L 299 48 L 296 51 L 292 51 L 289 48 L 289 44 L 288 43 L 288 39 L 287 38 L 287 34 L 286 33 L 286 27 L 285 26 L 285 23 L 284 22 L 284 20 L 283 19 L 283 12 L 287 8 L 287 7 L 286 6 L 283 6 L 282 7 L 275 7 L 274 8 L 271 8 L 270 9 L 268 9 L 266 12 L 266 14 L 267 15 L 270 15 L 273 18 L 273 23 L 274 24 L 274 28 L 275 29 L 275 34 L 276 35 L 276 39 L 277 40 L 277 45 L 278 46 L 278 51 L 279 52 L 279 53 L 275 57 L 275 59 L 276 60 L 279 60 L 280 59 L 285 59 L 286 58 L 290 58 L 293 56 L 298 56 L 299 55 L 306 55 L 307 54 L 317 54 L 318 53 L 320 53 L 321 52 L 322 52 L 324 50 L 327 49 L 328 48 L 328 47 L 332 43 L 332 42 L 334 39 L 334 37 L 335 36 L 335 33 L 336 32 L 337 32 L 338 33 L 338 37 L 339 38 L 339 42 L 341 44 L 341 45 L 343 47 L 343 48 L 346 51 L 347 51 L 352 54 L 362 54 L 363 53 L 365 53 L 366 52 L 369 51 L 370 50 L 370 49 L 372 47 L 373 47 L 374 46 L 374 45 L 377 42 L 377 41 L 379 38 L 379 34 L 380 33 L 380 18 L 379 17 L 379 15 L 378 14 Z"/>
</svg>