<svg xmlns="http://www.w3.org/2000/svg" viewBox="0 0 791 557" role="img" aria-label="Infonavit logo">
  <title>Infonavit logo</title>
  <g fill="#D92933" fill-rule="evenodd">
    <path d="M 702 477 L 702 491 L 733 491 L 734 492 L 734 554 L 758 554 L 758 492 L 759 491 L 790 491 L 790 477 Z"/>
    <path d="M 666 477 L 666 554 L 690 554 L 690 477 Z"/>
    <path d="M 548 477 L 548 478 L 549 479 L 549 480 L 550 481 L 550 482 L 551 483 L 551 484 L 552 485 L 552 486 L 553 487 L 553 488 L 554 489 L 554 490 L 556 492 L 556 493 L 557 494 L 557 495 L 558 496 L 558 497 L 559 498 L 559 499 L 560 500 L 560 501 L 561 502 L 561 503 L 562 504 L 562 505 L 563 506 L 563 507 L 564 508 L 564 509 L 565 510 L 565 511 L 566 512 L 566 513 L 567 514 L 567 515 L 568 516 L 568 517 L 569 518 L 569 519 L 570 520 L 570 521 L 571 522 L 571 523 L 572 524 L 572 525 L 573 526 L 573 527 L 574 528 L 574 529 L 575 530 L 575 531 L 576 532 L 576 533 L 577 534 L 577 535 L 578 536 L 578 537 L 579 538 L 579 539 L 580 540 L 580 541 L 581 542 L 581 543 L 582 544 L 582 545 L 583 546 L 583 547 L 584 548 L 584 549 L 585 550 L 585 551 L 586 552 L 586 553 L 587 554 L 617 554 L 617 553 L 618 552 L 618 551 L 619 550 L 619 549 L 620 548 L 620 547 L 621 546 L 621 545 L 622 544 L 622 543 L 623 542 L 623 541 L 624 540 L 624 539 L 625 538 L 625 537 L 627 535 L 627 534 L 628 533 L 628 532 L 629 531 L 629 530 L 630 529 L 630 528 L 631 527 L 631 526 L 632 525 L 632 524 L 633 523 L 633 522 L 634 521 L 634 520 L 635 519 L 635 518 L 636 517 L 636 516 L 637 515 L 637 514 L 638 513 L 638 512 L 639 511 L 639 510 L 641 508 L 641 507 L 642 506 L 642 505 L 643 504 L 643 503 L 644 502 L 644 501 L 645 500 L 645 499 L 646 498 L 646 497 L 647 496 L 647 495 L 648 494 L 648 493 L 649 492 L 649 491 L 650 490 L 650 489 L 651 488 L 651 487 L 652 486 L 652 485 L 653 484 L 653 483 L 655 481 L 655 480 L 656 479 L 656 477 L 629 477 L 629 478 L 628 479 L 628 480 L 627 481 L 627 482 L 626 483 L 626 484 L 625 485 L 625 486 L 624 487 L 624 488 L 623 489 L 623 490 L 622 491 L 622 492 L 621 493 L 621 494 L 620 495 L 620 496 L 619 497 L 619 498 L 618 499 L 618 500 L 617 501 L 617 502 L 616 503 L 616 504 L 615 505 L 615 506 L 614 507 L 614 508 L 613 509 L 613 510 L 612 511 L 612 512 L 611 513 L 611 514 L 610 515 L 610 516 L 609 517 L 609 518 L 608 519 L 608 520 L 607 521 L 607 522 L 606 523 L 606 524 L 605 525 L 605 526 L 604 527 L 604 528 L 603 529 L 603 530 L 602 531 L 601 530 L 601 529 L 600 528 L 600 527 L 599 526 L 599 525 L 598 524 L 598 523 L 597 522 L 597 521 L 596 520 L 596 519 L 595 518 L 595 517 L 594 516 L 594 515 L 593 514 L 593 513 L 592 512 L 592 511 L 591 510 L 591 509 L 590 508 L 590 507 L 589 506 L 589 505 L 588 504 L 588 503 L 587 502 L 587 501 L 586 500 L 586 499 L 585 498 L 585 497 L 584 496 L 584 495 L 583 494 L 583 493 L 582 492 L 582 491 L 581 490 L 581 489 L 580 488 L 580 487 L 579 486 L 579 484 L 578 483 L 578 482 L 577 481 L 577 480 L 576 479 L 576 478 L 575 477 Z"/>
    <path d="M 503 477 L 502 478 L 502 479 L 501 480 L 501 481 L 500 482 L 500 483 L 499 484 L 499 485 L 498 486 L 498 487 L 497 488 L 497 489 L 496 490 L 496 491 L 495 492 L 495 493 L 494 494 L 494 495 L 493 496 L 493 497 L 492 498 L 492 499 L 491 500 L 491 501 L 490 502 L 490 503 L 489 504 L 489 505 L 488 506 L 488 507 L 487 508 L 487 509 L 486 510 L 486 511 L 485 512 L 485 513 L 484 514 L 484 515 L 483 516 L 483 517 L 482 518 L 482 519 L 481 520 L 481 521 L 480 522 L 480 523 L 479 524 L 479 525 L 478 526 L 478 527 L 477 528 L 477 529 L 476 530 L 476 531 L 475 532 L 475 533 L 474 534 L 474 535 L 473 536 L 473 537 L 472 538 L 472 539 L 471 540 L 471 541 L 470 542 L 470 543 L 469 544 L 469 545 L 468 546 L 468 547 L 467 548 L 467 549 L 466 550 L 466 551 L 465 552 L 465 553 L 464 554 L 490 554 L 491 553 L 491 552 L 492 551 L 492 550 L 493 549 L 493 548 L 494 547 L 494 546 L 495 545 L 495 544 L 496 543 L 496 542 L 497 541 L 497 540 L 498 539 L 498 538 L 499 537 L 499 536 L 500 535 L 500 534 L 501 533 L 501 532 L 502 531 L 502 529 L 503 528 L 503 527 L 504 526 L 504 525 L 505 524 L 505 523 L 506 522 L 506 521 L 507 520 L 507 519 L 508 518 L 508 517 L 509 516 L 509 515 L 510 514 L 510 513 L 511 512 L 511 511 L 512 510 L 512 509 L 513 508 L 513 507 L 514 506 L 514 505 L 515 504 L 515 503 L 516 502 L 516 501 L 517 500 L 518 501 L 518 502 L 519 503 L 519 504 L 520 505 L 520 506 L 521 507 L 521 509 L 522 510 L 522 511 L 523 512 L 523 513 L 524 514 L 524 515 L 525 516 L 525 517 L 526 518 L 526 519 L 527 520 L 527 521 L 528 522 L 528 523 L 529 524 L 529 525 L 530 526 L 530 527 L 531 528 L 531 529 L 532 530 L 532 532 L 533 533 L 533 534 L 534 535 L 534 536 L 535 537 L 535 538 L 536 539 L 536 540 L 537 541 L 537 542 L 538 543 L 538 544 L 539 545 L 539 546 L 540 547 L 540 548 L 541 549 L 541 550 L 542 551 L 542 553 L 543 554 L 569 554 L 569 553 L 568 552 L 568 551 L 567 550 L 567 549 L 566 548 L 566 547 L 565 546 L 565 545 L 564 544 L 564 543 L 563 542 L 563 541 L 562 540 L 562 539 L 561 538 L 561 537 L 560 536 L 560 535 L 559 534 L 559 533 L 558 532 L 558 531 L 557 530 L 557 529 L 556 528 L 556 527 L 555 526 L 555 524 L 554 523 L 554 522 L 553 521 L 553 520 L 552 519 L 552 518 L 551 517 L 551 516 L 550 515 L 550 514 L 549 513 L 549 512 L 548 511 L 548 510 L 547 509 L 547 508 L 546 507 L 546 506 L 545 505 L 545 504 L 544 503 L 544 502 L 543 501 L 543 500 L 542 499 L 542 498 L 541 497 L 541 496 L 540 495 L 540 494 L 539 493 L 539 492 L 538 491 L 538 490 L 537 489 L 537 488 L 536 487 L 536 486 L 535 485 L 535 484 L 534 483 L 534 481 L 533 480 L 533 479 L 532 478 L 532 477 Z"/>
    <path d="M 363 477 L 363 554 L 385 554 L 385 504 L 386 503 L 391 508 L 391 509 L 397 515 L 397 516 L 404 523 L 404 524 L 410 530 L 410 531 L 417 538 L 417 539 L 423 545 L 423 546 L 429 552 L 429 553 L 430 554 L 454 554 L 454 477 L 432 477 L 432 527 L 431 528 L 428 525 L 428 524 L 421 517 L 421 516 L 415 510 L 415 509 L 409 503 L 409 502 L 402 495 L 402 494 L 395 487 L 395 486 L 389 480 L 389 479 L 387 477 Z"/>
    <path d="M 157 477 L 157 554 L 180 554 L 180 523 L 181 522 L 225 522 L 225 509 L 181 509 L 180 508 L 180 492 L 181 491 L 232 491 L 232 477 Z"/>
    <path d="M 45 477 L 45 554 L 67 554 L 67 504 L 68 503 L 71 506 L 71 507 L 77 513 L 77 514 L 84 521 L 84 522 L 90 528 L 90 529 L 97 536 L 97 537 L 103 543 L 103 544 L 109 550 L 109 551 L 112 554 L 136 554 L 136 477 L 114 477 L 114 527 L 113 528 L 108 523 L 108 522 L 101 515 L 101 514 L 95 508 L 95 507 L 88 500 L 88 499 L 82 493 L 82 492 L 75 485 L 75 484 L 69 478 L 69 477 Z"/>
    <path d="M 0 477 L 0 553 L 1 554 L 24 554 L 24 477 Z"/>
    <path d="M 284 475 L 283 476 L 278 476 L 277 477 L 274 477 L 273 478 L 271 478 L 270 479 L 269 479 L 268 480 L 266 480 L 265 481 L 264 481 L 263 482 L 262 482 L 261 483 L 260 483 L 258 485 L 257 485 L 248 494 L 248 495 L 246 497 L 246 498 L 245 499 L 245 500 L 244 501 L 244 503 L 243 504 L 243 506 L 242 507 L 242 511 L 241 512 L 241 519 L 242 520 L 242 525 L 243 526 L 243 528 L 244 529 L 244 530 L 245 531 L 245 532 L 246 533 L 246 534 L 248 536 L 248 537 L 252 541 L 252 542 L 253 542 L 256 545 L 257 545 L 259 547 L 260 547 L 262 549 L 263 549 L 264 550 L 266 550 L 267 551 L 268 551 L 269 552 L 271 552 L 272 553 L 275 553 L 276 554 L 280 554 L 281 555 L 286 555 L 287 556 L 301 556 L 302 555 L 308 555 L 309 554 L 312 554 L 313 553 L 316 553 L 317 552 L 319 552 L 320 551 L 322 551 L 323 550 L 324 550 L 325 549 L 326 549 L 327 548 L 328 548 L 330 546 L 331 546 L 334 543 L 335 543 L 337 541 L 337 540 L 341 536 L 341 535 L 343 533 L 343 532 L 344 531 L 344 529 L 345 528 L 345 526 L 346 525 L 346 522 L 347 521 L 347 511 L 346 510 L 346 506 L 345 505 L 345 503 L 344 502 L 344 501 L 343 500 L 343 499 L 342 498 L 342 497 L 341 496 L 341 495 L 330 484 L 329 484 L 328 483 L 327 483 L 326 482 L 325 482 L 324 481 L 323 481 L 322 480 L 321 480 L 320 479 L 318 479 L 317 478 L 315 478 L 314 477 L 311 477 L 310 476 L 306 476 L 305 475 Z M 286 490 L 287 489 L 301 489 L 302 490 L 305 490 L 306 491 L 308 491 L 309 492 L 310 492 L 311 493 L 312 493 L 319 500 L 319 501 L 321 503 L 321 505 L 322 506 L 322 508 L 323 509 L 323 522 L 322 523 L 322 525 L 321 526 L 321 528 L 319 530 L 319 531 L 313 537 L 312 537 L 311 538 L 310 538 L 309 539 L 308 539 L 307 540 L 305 540 L 304 541 L 300 541 L 299 542 L 290 542 L 289 541 L 284 541 L 283 540 L 281 540 L 280 539 L 279 539 L 278 538 L 277 538 L 275 536 L 274 536 L 269 531 L 269 530 L 268 529 L 268 528 L 267 527 L 267 526 L 266 525 L 266 522 L 265 521 L 265 510 L 266 509 L 266 506 L 267 505 L 267 504 L 268 503 L 268 502 L 269 501 L 269 500 L 276 493 L 277 493 L 278 492 L 279 492 L 280 491 L 282 491 L 283 490 Z"/>
    <path d="M 395 93 L 246 242 L 246 450 L 293 450 L 293 262 L 395 160 L 497 262 L 497 450 L 544 450 L 544 242 Z"/>
    <path d="M 790 91 L 646 235 L 645 235 L 645 236 L 638 243 L 638 449 L 639 450 L 685 450 L 686 449 L 686 262 L 790 158 Z"/>
    <path d="M 0 90 L 0 158 L 104 262 L 104 449 L 105 450 L 151 450 L 152 449 L 152 243 L 151 242 L 151 241 Z"/>
    <path d="M 0 2 L 0 70 L 174 244 L 174 450 L 221 450 L 221 244 L 395 70 L 396 70 L 569 243 L 569 450 L 616 450 L 616 244 L 790 70 L 790 2 L 644 148 L 644 149 L 593 200 L 396 3 L 395 3 L 308 90 L 307 90 L 307 91 L 292 106 L 291 106 L 291 107 L 270 128 L 269 128 L 269 129 L 267 131 L 266 131 L 266 132 L 265 133 L 264 133 L 198 199 L 197 199 Z"/>
    <path d="M 583 0 L 582 1 L 578 1 L 577 2 L 573 2 L 572 3 L 571 3 L 570 4 L 568 4 L 567 5 L 566 5 L 565 6 L 563 6 L 562 7 L 561 7 L 560 8 L 559 8 L 557 10 L 556 10 L 554 12 L 553 12 L 550 15 L 549 15 L 539 25 L 539 26 L 536 29 L 536 30 L 535 31 L 535 32 L 533 34 L 533 35 L 532 36 L 532 37 L 531 38 L 531 39 L 530 40 L 530 41 L 529 42 L 529 44 L 528 45 L 528 47 L 527 48 L 527 51 L 526 52 L 526 55 L 525 56 L 525 64 L 524 65 L 524 70 L 525 71 L 525 80 L 526 81 L 526 84 L 527 85 L 527 88 L 528 89 L 528 91 L 529 92 L 529 94 L 530 95 L 530 96 L 531 97 L 531 98 L 532 99 L 532 100 L 533 101 L 533 102 L 535 104 L 535 105 L 536 106 L 536 107 L 539 110 L 539 111 L 550 122 L 551 122 L 553 124 L 554 124 L 556 126 L 557 126 L 559 128 L 560 128 L 561 129 L 562 129 L 563 130 L 564 130 L 565 131 L 566 131 L 567 132 L 569 132 L 570 133 L 572 133 L 573 134 L 576 134 L 577 135 L 581 135 L 582 136 L 590 136 L 591 137 L 595 137 L 596 136 L 604 136 L 605 135 L 609 135 L 610 134 L 612 134 L 613 133 L 615 133 L 616 132 L 618 132 L 619 131 L 620 131 L 621 130 L 622 130 L 623 129 L 624 129 L 625 128 L 626 128 L 627 127 L 628 127 L 630 125 L 631 125 L 633 123 L 634 123 L 637 120 L 638 120 L 646 112 L 646 111 L 648 109 L 648 108 L 650 106 L 650 105 L 652 103 L 652 102 L 653 101 L 653 100 L 654 99 L 654 98 L 655 97 L 655 96 L 656 95 L 656 94 L 657 93 L 657 91 L 658 90 L 658 88 L 659 87 L 659 84 L 660 83 L 660 78 L 661 77 L 661 59 L 660 58 L 660 54 L 659 53 L 659 50 L 658 49 L 658 47 L 657 46 L 657 44 L 656 43 L 656 41 L 655 40 L 655 39 L 654 38 L 654 37 L 653 36 L 653 35 L 651 33 L 651 32 L 650 31 L 650 30 L 648 28 L 648 27 L 643 22 L 643 21 L 639 17 L 638 17 L 634 13 L 633 13 L 631 11 L 630 11 L 628 9 L 627 9 L 626 8 L 625 8 L 624 7 L 623 7 L 622 6 L 621 6 L 620 5 L 619 5 L 618 4 L 616 4 L 615 3 L 613 3 L 612 2 L 609 2 L 608 1 L 604 1 L 603 0 Z"/>
    <path d="M 187 0 L 186 1 L 182 1 L 181 2 L 178 2 L 177 3 L 175 3 L 174 4 L 173 4 L 172 5 L 170 5 L 169 6 L 168 6 L 167 7 L 166 7 L 165 8 L 164 8 L 163 9 L 162 9 L 160 11 L 159 11 L 157 13 L 156 13 L 151 18 L 150 18 L 147 21 L 147 22 L 142 27 L 142 28 L 140 30 L 140 31 L 138 33 L 138 34 L 137 35 L 137 36 L 136 37 L 136 38 L 135 39 L 135 40 L 134 41 L 134 43 L 133 44 L 133 45 L 132 46 L 132 48 L 131 49 L 131 52 L 130 53 L 130 58 L 129 59 L 129 77 L 130 78 L 130 83 L 131 84 L 131 87 L 132 88 L 132 90 L 133 91 L 133 93 L 134 94 L 134 95 L 135 96 L 135 97 L 136 98 L 136 99 L 137 100 L 137 101 L 138 102 L 138 103 L 140 105 L 140 106 L 142 108 L 142 109 L 144 111 L 144 112 L 153 121 L 154 121 L 156 123 L 157 123 L 159 125 L 160 125 L 162 127 L 163 127 L 164 128 L 165 128 L 166 129 L 167 129 L 168 130 L 169 130 L 170 131 L 171 131 L 172 132 L 174 132 L 175 133 L 177 133 L 178 134 L 180 134 L 181 135 L 185 135 L 186 136 L 194 136 L 195 137 L 199 137 L 200 136 L 208 136 L 209 135 L 213 135 L 214 134 L 217 134 L 218 133 L 220 133 L 221 132 L 223 132 L 224 131 L 225 131 L 226 130 L 227 130 L 228 129 L 229 129 L 230 128 L 231 128 L 233 126 L 234 126 L 236 124 L 237 124 L 239 122 L 240 122 L 251 111 L 251 110 L 254 107 L 254 106 L 256 104 L 256 103 L 257 102 L 257 101 L 258 100 L 258 99 L 259 98 L 259 97 L 260 96 L 260 95 L 261 94 L 261 92 L 262 91 L 262 90 L 263 89 L 263 86 L 264 85 L 264 82 L 265 81 L 265 75 L 266 74 L 266 63 L 265 62 L 265 56 L 264 55 L 264 52 L 263 51 L 263 48 L 262 47 L 262 45 L 261 44 L 261 42 L 260 41 L 260 40 L 259 39 L 259 38 L 258 37 L 258 36 L 257 35 L 257 34 L 255 32 L 255 31 L 254 30 L 254 29 L 251 26 L 251 25 L 241 15 L 240 15 L 237 12 L 236 12 L 234 10 L 233 10 L 231 8 L 230 8 L 229 7 L 228 7 L 227 6 L 225 6 L 224 5 L 223 5 L 222 4 L 221 4 L 220 3 L 218 3 L 217 2 L 213 2 L 212 1 L 208 1 L 207 0 Z"/>
  </g>
</svg>