<svg width="66" height="26" viewBox="0 0 66 26" fill="none" xmlns="http://www.w3.org/2000/svg">
<path d="M52.5517 25.127H56.5195V21.4166H52.5517V25.127Z" fill="#FCD116"/>
<path d="M31.1422 8.37708L22.0705 17.4488H31.1422V21.1592H17.1523V17.4488L26.2235 8.37708H17.1523V4.66669H31.1422V8.37708Z" fill="#2B2B28"/>
<path d="M48.8414 8.37708L39.7703 17.4488H48.8414V21.1592H34.8516V17.4488L43.9233 8.37708H34.8516V4.66669H48.8414V8.37708Z" fill="#2B2B28"/>
<path d="M4.37017 17.4489H0.402344V21.1593H4.37017V17.4489Z" fill="#00C1B5"/>
<path d="M13.4405 0.698914H9.47266V4.40931H13.4405V0.698914Z" fill="#FF6C07"/>
<path d="M56.5225 4.66669H52.5547V17.4488H56.5225V4.66669Z" fill="#2B2B28"/>
<path d="M13.4405 8.37695H9.47266V21.1591H13.4405V8.37695Z" fill="#2B2B28"/>
<path d="M61.6259 8.37665H65.5938V4.66625H61.6259V8.37665Z" fill="#D60270"/>
</svg>
