<svg xmlns="http://www.w3.org/2000/svg" viewBox="0 0 1024 501" role="img" aria-label="Nintendo logo">
  <title>Nintendo logo</title>
  <rect width="1024" height="501" fill="#E60012"/>
  <g fill="#FFFFFF" fill-rule="evenodd">
    <path d="M 286 233 L 286 298 L 315 298 L 315 233 Z"/>
    <path d="M 664 245 L 662 243 L 662 242 L 657 237 L 656 237 L 654 235 L 653 235 L 648 232 L 646 232 L 645 231 L 642 231 L 641 230 L 630 230 L 629 231 L 626 231 L 625 232 L 623 232 L 622 233 L 617 235 L 611 240 L 610 239 L 610 233 L 581 233 L 581 298 L 610 298 L 610 292 L 609 291 L 609 256 L 610 255 L 610 251 L 612 249 L 612 248 L 615 245 L 616 245 L 618 243 L 620 243 L 621 242 L 629 242 L 630 243 L 633 244 L 638 249 L 638 250 L 639 251 L 639 253 L 640 254 L 640 298 L 668 298 L 668 256 L 667 255 L 667 252 L 666 251 L 666 249 L 665 248 Z"/>
    <path d="M 417 246 L 415 244 L 415 243 L 408 236 L 407 236 L 400 232 L 398 232 L 397 231 L 394 231 L 393 230 L 382 230 L 381 231 L 378 231 L 377 232 L 375 232 L 374 233 L 369 235 L 363 240 L 362 239 L 362 233 L 333 233 L 333 298 L 362 298 L 362 252 L 363 251 L 363 250 L 369 244 L 370 244 L 371 243 L 373 243 L 374 242 L 381 242 L 382 243 L 384 243 L 389 247 L 389 248 L 392 252 L 392 298 L 420 298 L 420 254 L 419 253 L 419 251 L 418 250 L 418 248 L 417 247 Z"/>
    <path d="M 501 235 L 499 237 L 498 237 L 496 239 L 495 239 L 490 244 L 490 245 L 487 248 L 487 249 L 484 254 L 484 256 L 483 257 L 483 260 L 482 261 L 482 270 L 483 271 L 483 274 L 484 275 L 485 280 L 487 282 L 487 283 L 489 285 L 489 286 L 496 293 L 497 293 L 499 295 L 500 295 L 502 297 L 503 297 L 506 299 L 508 299 L 509 300 L 511 300 L 512 301 L 515 301 L 516 302 L 525 302 L 526 303 L 527 302 L 536 302 L 537 301 L 540 301 L 541 300 L 543 300 L 546 298 L 548 298 L 549 297 L 550 297 L 552 295 L 553 295 L 555 293 L 556 293 L 563 286 L 563 285 L 565 283 L 565 282 L 568 277 L 540 277 L 540 283 L 539 284 L 539 287 L 535 293 L 534 293 L 532 295 L 530 295 L 529 296 L 524 296 L 523 295 L 521 295 L 520 294 L 519 294 L 515 290 L 515 289 L 513 286 L 513 266 L 514 265 L 570 265 L 570 261 L 569 260 L 569 257 L 568 256 L 568 254 L 567 253 L 566 250 L 559 241 L 558 241 L 554 237 L 553 237 L 551 235 L 550 235 L 547 233 L 545 233 L 542 231 L 540 231 L 539 230 L 535 230 L 534 229 L 518 229 L 517 230 L 513 230 L 512 231 L 507 232 L 506 233 Z M 515 241 L 518 238 L 519 238 L 521 236 L 524 236 L 525 235 L 528 235 L 529 236 L 531 236 L 532 237 L 533 237 L 538 242 L 538 243 L 539 244 L 539 247 L 540 248 L 540 256 L 539 257 L 514 257 L 513 256 L 513 245 L 514 244 L 514 243 L 515 242 Z"/>
    <path d="M 839 232 L 837 232 L 836 231 L 834 231 L 833 230 L 830 230 L 829 229 L 820 229 L 819 228 L 818 229 L 810 229 L 809 230 L 806 230 L 805 231 L 802 231 L 801 232 L 800 232 L 799 233 L 798 233 L 797 234 L 796 234 L 795 235 L 794 235 L 792 237 L 791 237 L 788 240 L 787 240 L 785 242 L 785 243 L 781 247 L 781 248 L 780 249 L 780 250 L 779 251 L 779 252 L 778 253 L 778 254 L 777 255 L 777 258 L 776 259 L 776 272 L 777 273 L 777 275 L 778 276 L 778 278 L 779 279 L 779 280 L 780 281 L 780 282 L 782 284 L 782 285 L 790 293 L 791 293 L 793 295 L 794 295 L 795 296 L 796 296 L 798 298 L 800 298 L 801 299 L 802 299 L 803 300 L 806 300 L 807 301 L 810 301 L 811 302 L 827 302 L 828 301 L 832 301 L 833 300 L 835 300 L 836 299 L 838 299 L 839 298 L 840 298 L 841 297 L 842 297 L 843 296 L 844 296 L 846 294 L 847 294 L 849 292 L 850 292 L 855 287 L 855 286 L 858 283 L 858 282 L 859 281 L 859 280 L 860 279 L 860 278 L 861 277 L 861 275 L 862 274 L 862 271 L 863 270 L 863 261 L 862 260 L 862 257 L 861 256 L 861 254 L 860 253 L 860 251 L 858 249 L 858 248 L 856 246 L 856 245 L 849 238 L 848 238 L 846 236 L 845 236 L 843 234 L 842 234 L 841 233 L 840 233 Z M 816 235 L 822 235 L 823 236 L 825 236 L 831 242 L 831 244 L 832 245 L 832 259 L 833 260 L 833 265 L 832 266 L 832 286 L 831 287 L 831 288 L 830 289 L 830 290 L 826 294 L 825 294 L 824 295 L 821 295 L 820 296 L 818 296 L 817 295 L 814 295 L 812 293 L 811 293 L 809 291 L 809 290 L 807 288 L 807 286 L 806 285 L 806 245 L 807 244 L 807 243 L 808 242 L 808 241 L 812 237 L 813 237 L 814 236 L 815 236 Z"/>
    <path d="M 439 210 L 439 222 L 438 223 L 423 223 L 423 231 L 438 231 L 439 232 L 439 298 L 468 298 L 468 232 L 469 231 L 484 231 L 484 223 L 469 223 L 468 222 L 468 210 Z"/>
    <path d="M 863 207 L 863 222 L 865 222 L 865 216 L 866 215 L 868 215 L 870 217 L 870 218 L 871 219 L 871 221 L 872 222 L 875 222 L 874 221 L 874 220 L 873 219 L 873 218 L 872 217 L 872 216 L 871 215 L 872 214 L 873 214 L 875 212 L 875 209 L 873 207 Z M 865 208 L 866 207 L 868 207 L 869 208 L 871 208 L 872 209 L 872 210 L 873 211 L 872 212 L 872 213 L 871 214 L 866 214 L 865 213 Z"/>
    <path d="M 865 200 L 864 201 L 862 201 L 861 202 L 860 202 L 856 206 L 856 207 L 855 208 L 855 209 L 854 210 L 854 219 L 855 220 L 855 221 L 856 222 L 856 223 L 860 227 L 861 227 L 862 228 L 863 228 L 864 229 L 872 229 L 873 228 L 875 228 L 877 226 L 878 226 L 879 225 L 879 224 L 881 222 L 881 221 L 882 220 L 882 218 L 883 217 L 883 212 L 882 211 L 882 209 L 881 208 L 881 207 L 876 202 L 875 202 L 874 201 L 873 201 L 872 200 Z M 865 201 L 871 201 L 872 202 L 874 202 L 876 204 L 877 204 L 879 206 L 879 207 L 880 208 L 880 209 L 881 210 L 881 212 L 882 213 L 882 217 L 881 218 L 881 220 L 879 222 L 879 223 L 876 226 L 875 226 L 874 227 L 873 227 L 872 228 L 865 228 L 864 227 L 862 227 L 856 221 L 856 220 L 855 219 L 855 211 L 856 210 L 856 208 L 861 203 L 862 203 L 863 202 L 864 202 Z"/>
    <path d="M 764 199 L 736 199 L 736 235 L 735 236 L 733 236 L 731 234 L 729 234 L 728 233 L 727 233 L 726 232 L 724 232 L 723 231 L 719 231 L 718 230 L 711 230 L 710 231 L 706 231 L 705 232 L 703 232 L 702 233 L 701 233 L 700 234 L 697 235 L 695 237 L 694 237 L 687 244 L 687 245 L 683 250 L 683 252 L 681 255 L 681 258 L 680 259 L 680 272 L 681 273 L 681 276 L 682 277 L 682 279 L 683 280 L 684 283 L 686 285 L 686 286 L 694 294 L 695 294 L 697 296 L 698 296 L 701 298 L 703 298 L 704 299 L 706 299 L 707 300 L 722 300 L 723 299 L 726 299 L 729 297 L 731 297 L 734 295 L 735 295 L 736 296 L 736 298 L 764 298 Z M 722 239 L 724 239 L 725 240 L 728 240 L 729 241 L 730 241 L 734 245 L 734 246 L 735 247 L 735 249 L 736 250 L 736 281 L 735 282 L 735 284 L 734 285 L 734 286 L 731 289 L 730 289 L 729 290 L 728 290 L 727 291 L 719 291 L 718 290 L 717 290 L 716 289 L 715 289 L 712 286 L 712 285 L 711 284 L 711 282 L 710 281 L 710 250 L 711 249 L 711 247 L 712 246 L 712 245 L 716 241 L 717 241 L 718 240 L 721 240 Z"/>
    <path d="M 286 199 L 286 218 L 315 218 L 315 199 Z"/>
    <path d="M 162 199 L 162 298 L 192 298 L 192 229 L 193 228 L 237 298 L 267 298 L 267 199 L 237 199 L 237 268 L 236 269 L 192 199 Z"/>
    <path d="M 76 235 L 79 278 L 89 302 L 102 320 L 119 335 L 141 347 L 186 356 L 851 355 L 882 347 L 915 326 L 934 302 L 947 263 L 947 235 L 943 217 L 935 198 L 918 175 L 901 161 L 882 151 L 863 145 L 837 142 L 172 143 L 141 151 L 107 173 L 88 198 Z M 101 237 L 112 206 L 131 185 L 155 172 L 179 167 L 844 167 L 868 172 L 883 179 L 906 199 L 920 227 L 922 261 L 911 292 L 896 310 L 876 323 L 845 331 L 178 331 L 147 323 L 120 303 L 112 292 L 103 271 Z"/>
  </g>
</svg>