<svg xmlns="http://www.w3.org/2000/svg" viewBox="0 0 2048 1152" role="img" aria-label="Revolut logo">
  <title>Revolut logo</title>
  <g fill="#000000" fill-rule="evenodd">
    <path d="M 1514 483 L 1515 685 L 1523 717 L 1541 749 L 1575 778 L 1604 790 L 1630 795 L 1664 796 L 1704 789 L 1724 781 L 1748 765 L 1774 733 L 1789 689 L 1791 483 L 1715 483 L 1714 670 L 1706 691 L 1692 707 L 1675 716 L 1658 719 L 1633 717 L 1615 709 L 1601 695 L 1592 675 L 1589 653 L 1589 483 Z"/>
    <path d="M 716 483 L 836 787 L 907 787 L 1028 483 L 948 483 L 872 689 L 796 483 Z"/>
    <path d="M 1170 475 L 1140 481 L 1107 495 L 1079 515 L 1056 540 L 1041 567 L 1031 603 L 1029 649 L 1032 672 L 1041 703 L 1058 733 L 1076 753 L 1100 771 L 1123 783 L 1157 793 L 1183 796 L 1227 793 L 1263 782 L 1294 764 L 1313 748 L 1334 721 L 1345 698 L 1353 668 L 1355 649 L 1353 602 L 1345 572 L 1334 549 L 1320 530 L 1292 505 L 1269 491 L 1232 478 L 1200 474 Z M 1182 546 L 1201 546 L 1220 550 L 1235 557 L 1249 567 L 1260 578 L 1270 593 L 1276 609 L 1279 628 L 1279 640 L 1276 661 L 1271 675 L 1261 691 L 1246 706 L 1230 716 L 1216 721 L 1201 724 L 1182 724 L 1167 721 L 1158 718 L 1139 707 L 1127 696 L 1118 684 L 1111 670 L 1106 649 L 1107 614 L 1112 598 L 1123 579 L 1138 564 L 1150 556 L 1170 548 Z"/>
    <path d="M 561 474 L 524 480 L 498 490 L 470 508 L 446 532 L 429 558 L 418 587 L 413 615 L 413 655 L 425 704 L 442 734 L 465 759 L 509 786 L 545 795 L 576 796 L 614 790 L 656 770 L 685 742 L 706 707 L 649 675 L 635 698 L 606 722 L 578 730 L 545 728 L 523 719 L 506 705 L 491 681 L 485 654 L 715 653 L 715 611 L 710 581 L 701 556 L 684 528 L 663 506 L 643 492 L 615 480 Z M 485 595 L 493 577 L 502 564 L 515 551 L 525 544 L 537 538 L 539 538 L 546 535 L 549 535 L 550 534 L 554 534 L 555 533 L 581 533 L 582 534 L 587 534 L 588 535 L 591 535 L 592 536 L 603 539 L 618 548 L 630 560 L 635 567 L 637 572 L 639 574 L 639 576 L 643 584 L 643 587 L 644 588 L 645 595 L 646 596 L 645 597 L 486 597 Z"/>
    <path d="M 1832 400 L 1832 718 L 1837 738 L 1853 765 L 1864 776 L 1885 789 L 1914 796 L 1972 796 L 1973 729 L 1926 727 L 1918 723 L 1908 710 L 1907 546 L 1972 545 L 1973 483 L 1907 482 L 1906 400 Z"/>
    <path d="M 1394 366 L 1394 787 L 1469 787 L 1469 366 Z"/>
    <path d="M 76 357 L 76 787 L 155 787 L 157 612 L 225 615 L 321 787 L 411 787 L 310 606 L 345 589 L 368 572 L 384 554 L 399 526 L 406 492 L 405 458 L 396 428 L 383 407 L 347 377 L 289 359 Z M 155 429 L 156 428 L 269 428 L 270 429 L 283 430 L 296 434 L 304 438 L 313 445 L 319 452 L 324 462 L 327 473 L 327 497 L 324 508 L 318 519 L 308 529 L 300 534 L 282 540 L 267 541 L 266 542 L 157 542 L 155 540 Z"/>
  </g>
</svg>